<svg width="485" height="385" viewBox="0 0 485 385" fill="none" xmlns="http://www.w3.org/2000/svg">
<path d="M393.976 226.139C391.865 220.806 389.806 215.604 387.684 210.245C389.593 210.411 391.292 210.558 393.042 210.711C386.586 199.094 380.201 187.607 373.817 176.119C373.932 176.041 374.047 175.961 374.162 175.883C376.176 178.065 378.19 180.246 380.202 182.428C380.202 182.018 380.063 181.704 379.873 181.424C374.07 172.845 368.258 164.272 362.459 155.689C361.623 154.451 360.706 153.238 360.075 151.897C357.539 146.511 355.101 141.078 352.627 135.663C351.588 133.389 350.545 131.116 349.503 128.841L349.323 128.89C349.503 130.04 349.683 131.189 349.873 132.4C349.616 132.362 349.466 132.36 349.328 132.318C345.096 131.014 340.862 129.714 336.637 128.384C336.296 128.277 335.961 128.004 335.729 127.721C333.643 125.172 331.581 122.605 329.516 120.04C329.344 119.826 329.195 119.594 328.922 119.209H333.688L333.691 119.096C330.688 118.243 327.684 117.39 324.491 116.484C326.577 115.558 328.479 114.715 330.643 113.756C328.911 113.185 327.451 112.686 325.98 112.226C323.756 111.528 323.751 111.538 323.872 109.263C323.898 108.755 323.949 108.247 323.975 107.74C324.017 106.947 324.048 106.154 324.082 105.396H311.802C311.981 103.47 312.155 101.615 312.332 99.71C307.192 100.447 302.176 101.164 297.142 101.886V91.7092C296.856 91.8168 296.634 91.8851 296.423 91.98C291.917 94.0014 287.411 96.0216 282.908 98.0493C281.4 98.729 281.403 98.7379 280.505 97.3949C279.745 96.2595 278.984 95.1229 278.198 93.9483C275.085 95.8988 272.104 97.8518 269.036 99.6543C267.424 100.601 266.128 101.698 265.616 103.554C265.573 103.71 265.456 103.844 265.278 104.158C264.333 101.245 263.441 98.4974 262.55 95.7482L262.373 95.7558C261.648 98.2164 260.924 100.677 260.16 103.269C255.949 99.2188 251.881 95.3064 247.813 91.3953L247.651 91.5269C249.06 96.2266 250.469 100.925 251.879 105.625C251.809 105.649 251.741 105.673 251.671 105.697C251.127 104.508 250.619 103.3 250.018 102.14C249.771 101.666 249.393 101.188 248.952 100.896C247.157 99.7036 245.318 98.5784 243.49 97.4341C241.748 96.3431 239.998 95.2583 238.187 94.1305C237.277 95.49 236.374 96.7544 235.569 98.0759C235.158 98.7505 234.8 98.8442 234.078 98.5138C229.425 96.3836 224.749 94.3027 220.078 92.2091C219.818 92.0927 219.55 91.999 219.249 91.8813V102.063C214.182 101.338 209.163 100.619 204.056 99.8872C204.24 101.834 204.413 103.689 204.59 105.575H192.305C192.395 107.225 192.397 108.871 192.602 110.492C192.731 111.511 192.348 111.829 191.463 112.081C189.629 112.605 187.828 113.245 185.75 113.923C187.904 114.884 189.811 115.736 191.895 116.665C188.68 117.577 185.674 118.43 182.666 119.283L182.687 119.439H187.398C187.26 119.673 187.203 119.801 187.118 119.906C184.922 122.635 182.731 125.368 180.512 128.079C180.306 128.332 179.941 128.504 179.617 128.606C175.562 129.875 171.501 131.127 167.441 132.379C167.172 132.461 166.893 132.512 166.518 132.6C166.715 131.338 166.893 130.206 167.071 129.071C166.829 129.198 166.727 129.366 166.646 129.544C163.699 135.994 160.763 142.448 157.804 148.893C157.107 150.415 156.502 152.012 155.579 153.392C149.605 162.324 143.553 171.206 137.528 180.105C137.008 180.873 136.491 181.644 135.972 182.415C136.044 182.478 136.116 182.542 136.188 182.605C138.202 180.425 140.217 178.246 142.231 176.066C142.345 176.146 142.46 176.226 142.574 176.305C136.18 187.808 129.787 199.31 123.351 210.892C125.136 210.737 126.838 210.591 128.711 210.429C126.576 215.821 124.522 221.008 122.418 226.319C124.674 226.12 126.8 225.933 129.056 225.734C128.261 229.4 127.499 232.916 126.723 236.495C129.22 236.75 131.598 237.002 133.979 237.228C134.441 237.273 134.755 237.345 134.835 237.905C135.108 239.799 135.458 241.681 135.72 243.575C135.815 244.261 136.103 244.68 136.698 245.043C146.019 250.744 155.324 256.473 164.641 262.18C165.143 262.488 165.701 262.738 166.267 262.908C174.578 265.394 182.894 267.864 191.215 270.32C191.766 270.482 192.04 270.753 192.215 271.303C193.435 275.153 194.69 278.99 195.936 282.831C196.479 284.503 197.032 286.171 197.594 287.887C198.277 287.602 198.874 287.353 199.51 287.089C199.687 287.353 199.842 287.567 199.979 287.794C203.095 292.94 206.204 298.09 209.33 303.232C209.575 303.633 209.876 304.029 210.237 304.323C213.204 306.749 216.19 309.151 219.173 311.558C219.462 311.791 219.764 312.007 220.173 312.319C220.413 308.525 220.641 304.912 220.877 301.184C221.927 301.733 222.816 302.197 223.755 302.686C224.902 300.77 225.998 298.938 227.176 296.968C228.988 301.008 230.725 304.886 232.565 308.989C233.125 307.328 233.602 305.914 234.095 304.457C237.188 306.09 240.165 307.661 243.317 309.324V305.644C243.683 305.925 243.895 306.075 244.093 306.242C247.037 308.742 249.925 311.311 252.957 313.7C253.759 314.332 254.225 314.958 254.44 315.877C254.449 315.915 254.533 315.935 254.639 315.998C255.563 314.583 256.487 313.165 257.562 311.519C258.712 314.413 260.789 315.934 263.655 316.465C263.68 316.422 263.782 316.326 263.793 316.22C264.13 313.201 265.835 311.097 268.28 309.485C268.379 309.419 268.46 309.328 268.552 309.251C270.005 308.023 271.458 306.796 273.099 305.412V309.138C276.259 307.471 279.257 305.89 282.307 304.28C282.812 305.781 283.283 307.182 283.832 308.813C285.674 304.705 287.416 300.819 289.222 296.79C290.418 298.795 291.527 300.652 292.643 302.524C293.614 302.009 294.482 301.548 295.52 300.998C295.758 304.777 295.986 308.39 296.224 312.172C296.735 311.766 297.085 311.492 297.43 311.212C300.272 308.916 303.12 306.63 305.944 304.313C306.394 303.943 306.803 303.476 307.106 302.977C310.207 297.892 313.281 292.789 316.366 287.695C316.53 287.423 316.721 287.167 316.899 286.906C317.562 287.191 318.137 287.438 318.771 287.71C318.911 287.333 319.045 287.005 319.156 286.668C320.835 281.491 322.52 276.317 324.175 271.133C324.35 270.586 324.62 270.309 325.172 270.147C332.861 267.877 340.544 265.592 348.225 263.294C349.337 262.961 350.536 262.725 351.507 262.136C360.972 256.384 370.401 250.572 379.822 244.746C380.191 244.518 380.521 244.006 380.606 243.576C380.975 241.7 381.266 239.808 381.537 237.914C381.619 237.345 381.806 237.083 382.418 237.047C383.582 236.98 384.743 236.83 385.903 236.709C387.139 236.581 388.374 236.449 389.672 236.311C388.887 232.698 388.129 229.202 387.337 225.559C389.601 225.758 391.725 225.945 393.974 226.143L393.976 226.139ZM373.883 175.703L373.942 175.705L373.974 175.769H373.852L373.883 175.703ZM142.418 175.947L142.45 175.883L142.509 175.885L142.541 175.948H142.419L142.418 175.947Z" fill="url(#paint0_linear_34_1589)"/>
<path d="M317.301 238.872C315.589 232.958 307.112 227.565 310.105 228.593C313.1 229.621 316.183 233.822 316.183 233.822C316.183 233.822 316.013 230.745 314.875 227.257C314.21 225.216 313.216 223.03 311.729 221.227C311.229 220.617 310.579 220.041 309.818 219.493C309.517 219.274 309.188 219.062 308.852 218.849V218.843C303.37 215.416 294.173 213.429 294.173 213.429C300.081 212.662 307.618 217.883 305.22 214.977C302.821 212.058 298.202 207.522 291.261 207.44C284.319 207.351 286.122 208.379 288.691 206.151C291.261 203.923 292.2 204.863 287.924 203.15C283.635 201.437 284.32 200.587 279.359 200.244C274.385 199.901 270.272 204.355 271.135 201.011C271.985 197.667 272.671 196.639 268.99 199.64C267.736 200.662 266.756 201.902 266.029 202.888C264.618 204.801 264.173 205.773 264.624 202.38C265.309 197.241 265.221 197.159 262.047 200.407C258.882 203.669 258.196 207.437 258.196 207.437C258.196 207.437 257.511 203.668 254.344 200.407C251.171 197.159 251.082 197.241 251.767 202.38C252.219 205.773 251.773 204.799 250.362 202.888C249.636 201.901 248.656 200.662 247.401 199.64C243.722 196.639 244.407 197.667 245.257 201.011C246.121 204.355 242.009 199.901 237.034 200.244C232.072 200.587 232.758 201.436 228.468 203.15C224.193 204.863 225.131 203.925 227.701 206.151C230.271 208.379 232.073 207.35 225.132 207.44C218.191 207.522 213.572 212.058 211.173 214.977C208.775 217.883 216.312 212.661 222.219 213.429C222.219 213.429 213.024 215.416 207.542 218.843V218.849C207.206 219.062 206.877 219.274 206.576 219.493C205.815 220.041 205.165 220.617 204.665 221.227C203.178 223.03 202.184 225.216 201.519 227.257C200.382 230.746 200.211 233.822 200.211 233.822C200.211 233.822 203.294 229.621 206.289 228.593C209.284 227.565 200.807 232.958 199.093 238.872C197.38 244.785 196.524 254.886 198.154 259.944C199.778 265.001 197.811 252.489 204.828 245.472C211.318 238.982 199.709 253.509 198.75 264.131C198.668 265.029 198.661 265.892 198.75 266.715C198.764 266.817 198.77 266.913 198.784 267.016C199.956 277.411 204.403 281.269 204.403 281.269C204.403 281.269 202.773 272.45 207.568 264.912C212.366 257.375 202.086 275.019 206.376 285.127C210.652 295.234 217.32 298.661 217.436 302.43C217.546 306.199 218.691 302.314 218.121 297.516C217.545 292.719 215.722 286.442 218.916 278.788C222.116 271.135 218.464 279.816 220.628 288.498C222.8 297.173 224.856 296.605 224.856 296.605C224.856 296.605 221.43 287.663 225.123 278.788C225.177 278.638 225.246 278.48 225.314 278.329C229.309 269.311 227.137 273.307 228.398 277.301C229.652 281.304 227.596 271.367 235.819 264.74C235.819 264.74 234.674 266.912 235.702 271.819C236.73 276.733 236.045 267.022 241.074 263.596C241.074 263.596 240.807 264.527 241.04 266.241C241.04 264.727 241.492 262.849 243.232 261.54C247.343 258.457 244.828 260.512 246.083 264.398C246.083 264.398 247.281 259.376 249.509 257.601C251.737 255.833 249.749 258.458 249.228 261.431C248.714 264.398 252.078 254.119 258.191 254.119C264.303 254.119 267.667 264.398 267.153 261.431C266.633 258.457 264.646 255.833 266.872 257.601C269.1 259.376 270.299 264.398 270.299 264.398C271.553 260.512 269.038 258.457 273.149 261.54C274.89 262.849 275.343 264.726 275.343 266.241C275.576 264.529 275.309 263.596 275.309 263.596C280.339 267.022 279.653 276.732 280.682 271.819C281.71 266.913 280.565 264.74 280.565 264.74C288.789 271.366 286.732 281.302 287.986 277.301C289.247 273.307 287.075 269.311 291.07 278.329C291.138 278.48 291.206 278.638 291.262 278.788C294.956 287.663 291.529 296.605 291.529 296.605C291.529 296.605 293.585 297.173 295.757 288.498C297.922 279.816 294.27 271.133 297.469 278.788C300.663 286.442 298.84 292.719 298.264 297.516C297.696 302.314 298.84 306.198 298.949 302.43C299.065 298.661 305.733 295.234 310.009 285.127C314.299 275.02 304.02 257.375 308.817 264.912C313.614 272.45 311.982 281.269 311.982 281.269C311.982 281.269 316.43 277.411 317.601 267.016C317.615 266.913 317.621 266.817 317.635 266.715C317.724 265.892 317.717 265.029 317.635 264.131C316.676 253.51 305.068 238.982 311.557 245.472C318.574 252.489 316.607 265.001 318.231 259.944C319.862 254.887 319.006 244.785 317.292 238.872H317.301ZM269.676 237.961C264.023 240.469 264.995 241.387 263.05 245.327C261.111 249.267 258.198 248.466 258.198 248.466C258.198 248.466 255.286 249.267 253.347 245.327C251.4 241.387 252.373 240.469 246.721 237.961C241.068 235.446 238.724 233.047 241.355 229.504C243.979 225.968 249.749 222.137 258.198 222.137C266.647 222.137 272.418 225.968 275.042 229.504C277.673 233.047 275.329 235.446 269.676 237.961Z" fill="#474747"/>
<path d="M269.675 237.96C264.022 240.468 264.994 241.386 263.049 245.326C261.11 249.267 258.197 248.465 258.197 248.465C258.197 248.465 255.285 249.267 253.346 245.326C251.399 241.386 252.372 240.468 246.719 237.96C241.067 235.445 238.722 233.046 241.354 229.503C243.978 225.967 249.748 222.137 258.197 222.137C266.646 222.137 272.417 225.967 275.041 229.503C277.672 233.046 275.328 235.445 269.675 237.96Z" fill="#1D1D1B"/>
<path d="M286.032 293.44C280.721 299.606 278.151 300.122 278.151 300.122C278.151 300.122 282.866 294.722 283.208 287.273C283.551 279.818 281.152 295.065 274.47 299.69C274.47 299.69 273.957 298.409 271.469 300.122C268.989 301.834 268.557 301.663 268.557 301.663C268.557 301.663 272.326 294.893 272.326 290.226C272.326 285.559 268.475 297.38 266.419 300.718C264.364 304.062 264.617 300.814 262.732 301.663C260.847 302.52 261.279 301.916 261.875 297.634C262.478 293.351 261.19 301.328 258.196 302.267C255.194 301.328 253.912 293.352 254.508 297.634C255.111 301.918 255.536 302.514 253.659 301.663C251.768 300.814 252.028 304.062 249.972 300.718C247.916 297.374 244.065 285.559 244.065 290.226C244.065 294.893 247.834 301.663 247.834 301.663C247.834 301.663 247.403 301.828 244.915 300.115C242.434 298.403 241.921 299.69 241.921 299.69C235.239 295.065 232.841 279.818 233.183 287.273C233.526 294.722 238.24 300.115 238.24 300.115C238.24 300.115 235.663 299.608 230.359 293.441C225.042 287.274 225.124 278.79 225.124 278.79C225.179 278.639 225.247 278.481 225.315 278.331C229.31 269.312 227.138 273.308 228.399 277.303C229.653 281.305 227.597 271.369 235.82 264.741C235.82 264.741 234.675 266.914 235.703 271.821C236.731 276.734 236.046 267.024 241.075 263.597C241.075 263.597 240.808 264.529 241.041 266.243C241.041 264.729 241.493 262.85 243.233 261.542C247.344 258.458 244.829 260.514 246.084 264.4C246.084 264.4 247.282 259.377 249.51 257.603C251.738 255.834 249.75 258.46 249.229 261.433C248.715 264.4 252.079 254.121 258.192 254.121C264.304 254.121 267.668 264.4 267.154 261.433C266.634 258.458 264.647 255.834 266.873 257.603C269.101 259.377 270.3 264.4 270.3 264.4C271.554 260.514 269.039 258.458 273.15 261.542C274.891 262.85 275.344 264.728 275.344 266.243C275.577 264.53 275.31 263.597 275.31 263.597C280.34 267.024 279.654 276.733 280.683 271.821C281.711 266.915 280.566 264.741 280.566 264.741C288.79 271.368 286.733 281.304 287.987 277.303C289.248 273.308 287.076 269.312 291.071 278.331C291.139 278.481 291.207 278.639 291.263 278.79C291.263 278.79 291.338 287.273 286.028 293.441L286.032 293.44Z" fill="#3C3C3B"/>
<path d="M247.23 179.372C242.947 172.402 240.378 170.518 244.318 173.087C248.258 175.657 240.035 166.694 243.461 168.091C246.887 169.489 245.346 160.58 235.41 158.525C225.474 156.469 211.083 161.437 206.629 176.341C202.175 191.246 201.888 199.867 203.49 204.211C203.49 204.211 204.628 196.214 207.711 191.3C210.726 186.503 201.674 203.785 206.573 219.492C206.875 219.273 207.204 219.06 207.539 218.848V218.841C213.021 215.415 222.217 213.428 222.217 213.428C216.31 212.661 208.772 217.882 211.171 214.977C213.569 212.058 218.188 207.522 225.129 207.44C232.071 207.351 230.268 208.379 227.699 206.151C225.129 203.923 224.19 204.862 228.466 203.15C232.755 201.437 232.071 200.587 237.031 200.245C242.005 199.902 246.118 204.356 245.255 201.012C244.405 197.668 243.719 196.64 247.4 199.641C248.654 200.663 249.634 201.903 250.361 202.889C250.545 198.901 250.861 185.285 247.229 179.372H247.23ZM237.897 188.198C235.32 190.562 231.126 192.789 224.356 192.789C217.585 192.789 215.708 191.843 217.078 191.843C218.447 191.843 214.336 189.876 215.625 189.534C216.906 189.191 215.022 188.677 213.994 185.333C212.967 181.995 211.624 181.098 212.884 180.112C212.884 180.112 215.193 178.659 217.935 174.891C220.676 171.121 223.848 168.463 227.7 168.12C231.552 167.777 235.498 170.78 237.718 176.515C239.952 182.25 239.692 182.511 240.637 183.881C241.576 185.252 240.459 185.828 237.896 188.199L237.897 188.198Z" fill="#2B2A2A"/>
<path d="M240.637 183.88C239.692 182.509 239.952 182.248 237.718 176.513C235.498 170.778 231.552 167.776 227.7 168.119C223.848 168.462 220.676 171.12 217.935 174.889C215.193 178.658 212.884 180.11 212.884 180.11C211.624 181.098 212.967 181.995 213.994 185.332C215.022 188.676 216.907 189.19 215.625 189.533C214.336 189.876 218.449 191.841 217.078 191.841C215.707 191.841 217.592 192.787 224.356 192.787C231.12 192.787 235.32 190.56 237.897 188.196C240.46 185.825 241.576 185.249 240.638 183.878L240.637 183.88ZM224.444 188.073C220.161 187.648 217.078 181.138 217.078 181.138C217.18 180.829 217.29 180.528 217.407 180.233C217.523 179.938 217.64 179.651 217.756 179.37L217.763 179.364C217.982 178.85 218.222 178.356 218.475 177.884C218.557 177.726 218.64 177.569 218.728 177.418C218.776 177.329 218.825 177.247 218.873 177.165C218.955 177.021 219.037 176.878 219.126 176.74C219.174 176.657 219.222 176.583 219.276 176.5C219.359 176.364 219.447 176.226 219.543 176.097C220.345 174.904 221.236 173.877 222.189 173.04C222.285 172.958 222.381 172.875 222.476 172.801C223.703 171.793 225.019 171.101 226.348 170.765C226.444 170.745 226.541 170.717 226.635 170.703C226.992 170.627 227.348 170.581 227.711 170.559C227.848 170.553 227.986 170.545 228.123 170.545C228.815 170.545 229.5 170.648 230.178 170.86C230.295 170.894 230.411 170.936 230.528 170.983C230.61 171.011 230.686 171.045 230.761 171.079C230.973 171.175 231.178 171.278 231.377 171.401C231.453 171.441 231.528 171.489 231.604 171.537C231.679 171.586 231.754 171.64 231.83 171.696C231.906 171.744 231.981 171.798 232.049 171.854C232.125 171.916 232.207 171.977 232.282 172.046C232.631 172.341 232.96 172.67 233.262 173.02C233.364 173.13 233.454 173.239 233.543 173.355C233.639 173.471 233.727 173.588 233.81 173.704C233.898 173.827 233.981 173.944 234.063 174.068C234.255 174.335 234.426 174.609 234.591 174.89C234.789 175.226 234.982 175.575 235.153 175.918C235.159 175.932 235.167 175.946 235.173 175.966C235.241 176.097 235.303 176.227 235.365 176.357C235.57 176.775 235.749 177.2 235.913 177.604C235.996 177.809 236.078 178.015 236.146 178.214C236.153 178.221 236.16 178.228 236.16 178.242C236.236 178.447 236.311 178.646 236.373 178.838C236.379 178.858 236.387 178.872 236.387 178.886C236.421 178.983 236.449 179.071 236.475 179.161C236.537 179.332 236.585 179.504 236.64 179.661C236.66 179.737 236.688 179.812 236.708 179.888V179.894C236.797 180.209 236.865 180.47 236.921 180.675C236.997 180.97 237.031 181.141 237.031 181.141C237.031 188.076 228.725 188.507 224.443 188.076L224.444 188.073Z" fill="#1D1D1B"/>
<path d="M237.034 181.138C237.034 188.073 228.728 188.505 224.446 188.073C220.162 187.648 217.079 181.138 217.079 181.138C217.182 180.829 217.292 180.528 217.408 180.233C217.525 179.938 217.641 179.651 217.758 179.37L217.764 179.364C218.942 183.53 222.774 186.58 227.316 186.58C231.859 186.58 235.362 183.784 236.711 179.891C236.799 180.207 236.868 180.467 236.923 180.672C236.999 180.967 237.034 181.138 237.034 181.138Z" fill="black"/>
<path d="M198.751 264.131C190.939 261.588 191.041 253.434 191.041 256.778C191.041 260.122 193.015 262.685 188.725 258.313C184.449 253.948 182.304 246.924 183.97 242.127C185.642 237.33 178.536 244.182 182.647 239.728C186.758 235.274 181.105 240.242 168.373 237.159C155.635 234.075 154.38 226.709 156.093 222.939C157.805 219.17 152.152 220.884 153.523 217.114C154.894 213.345 148.726 218.313 155.065 206.664C161.404 195.015 172.025 193.645 159.348 193.645C146.672 193.645 172.026 181.31 162.678 183.88C153.332 186.449 171.854 172.402 161.918 174.115C151.982 175.827 161.918 174.115 169.455 162.637C176.993 151.159 172.197 155.441 163.63 164.863C162.596 166.001 161.649 166.961 160.78 167.768C164.186 160.367 166.96 150.965 171.168 144.819C177.109 136.137 184.948 138.096 184.948 138.096C184.043 140.242 183.694 141.832 183.633 142.139C183.797 141.632 185.299 137.541 191.726 136.253C198.579 134.883 182.358 139.112 180.762 150.87C179.166 162.637 184.532 158.408 181.565 164.233C178.59 170.058 179.05 172.346 179.05 172.346C179.05 172.346 179.393 170.921 184.875 168.091C190.357 165.261 181.448 171.202 180.194 175.883C178.933 180.57 181.673 178.741 179.618 185.819C177.562 192.905 182.017 197.865 182.017 197.865C182.017 197.865 181.79 184.914 193.207 175.546C192.872 175.964 180.358 191.582 184.415 203.752C188.526 216.087 190.357 207.863 191.611 213.688C191.611 213.688 191.898 207.178 194.983 203.67C198.066 200.155 193.27 212.317 193.523 217.717C193.784 223.11 198.375 219.327 201.52 227.256C200.382 230.744 200.212 233.82 200.212 233.82C200.212 233.82 203.295 229.619 206.29 228.591C209.284 227.563 200.808 232.957 199.094 238.87C197.381 244.784 196.524 254.884 198.155 259.942C199.779 264.999 197.812 252.487 204.829 245.47C211.319 238.98 199.71 253.507 198.751 264.129V264.131Z" fill="#2B2A2A"/>
<path d="M198.786 267.016C196.044 266.707 189.486 265.686 184.95 262.684C179.091 258.798 183.278 262.458 177.336 258.573C171.395 254.687 168.996 243.382 169.113 249.548C169.229 255.715 172.998 256.744 172.998 256.744C172.998 256.744 170.6 257.203 164.542 253.551C158.492 249.891 154.949 235.049 155.182 240.188C155.408 245.327 158.149 248.534 158.149 248.534C158.149 248.534 149.925 246.355 146.842 239.044C143.758 231.732 141.243 232.5 141.243 232.5C141.243 232.5 144.903 221.797 140.792 228.539C136.68 235.276 138.845 232.877 139.647 225.456C140.45 218.027 135.31 221.687 137.708 214.149C140.107 206.612 149.467 197.812 144.445 200.444C139.422 203.069 136.68 207.865 136.68 207.865C136.68 207.865 137.475 200.895 140.902 198.388C144.328 195.873 141.586 189.247 146.384 187.534C151.181 185.822 158.718 179.544 155.065 181.6C151.53 183.595 146.699 185.15 146.398 185.246C146.617 185.067 150.235 182.183 156.094 175.543C157.863 173.541 159.377 170.828 160.782 167.772C161.652 166.963 162.598 166.004 163.632 164.867C172.197 155.445 176.994 151.162 169.457 162.641C161.919 174.119 151.983 175.832 161.919 174.119C171.856 172.406 153.334 186.453 162.68 183.884C172.026 181.314 146.672 193.649 159.35 193.649C172.028 193.649 161.406 195.02 155.067 206.669C148.728 218.318 154.896 213.35 153.525 217.119C152.154 220.888 157.808 219.174 156.094 222.944C154.382 226.713 155.635 234.078 168.375 237.163C181.107 240.246 186.76 235.278 182.649 239.732C178.537 244.187 185.643 237.334 183.971 242.131C182.306 246.928 184.451 253.952 188.727 258.317C193.016 262.689 191.043 260.12 191.043 256.782C191.043 253.444 190.94 261.593 198.753 264.135C198.67 265.032 198.664 265.895 198.753 266.718C198.767 266.821 198.773 266.917 198.787 267.019L198.786 267.016Z" fill="#1D1D1B"/>
<path d="M236.711 179.885V179.892C235.36 183.784 231.667 186.58 227.316 186.58C222.966 186.58 218.942 183.531 217.764 179.364C217.983 178.85 218.223 178.356 218.476 177.884C218.559 177.726 218.641 177.569 218.729 177.418C218.778 177.33 218.826 177.248 218.874 177.165C218.956 177.021 219.038 176.878 219.127 176.74C219.175 176.658 219.223 176.583 219.277 176.501C219.36 176.364 219.448 176.226 219.545 176.097C220.346 174.905 221.237 173.877 222.19 173.04C222.286 172.958 222.382 172.876 222.477 172.801C223.704 171.793 225.02 171.101 226.349 170.766C226.445 170.745 226.542 170.718 226.637 170.704C226.993 170.628 227.349 170.581 227.712 170.559C227.849 170.553 227.987 170.545 228.124 170.545C228.816 170.545 229.501 170.648 230.179 170.861C230.296 170.895 230.412 170.937 230.529 170.983C230.611 171.011 230.687 171.045 230.762 171.08C230.974 171.176 231.179 171.278 231.378 171.401C231.454 171.442 231.529 171.49 231.605 171.538C231.681 171.586 231.755 171.64 231.831 171.696C231.907 171.744 231.982 171.798 232.05 171.854C232.126 171.916 232.208 171.977 232.283 172.047C232.632 172.342 232.961 172.671 233.263 173.02C233.359 173.13 233.455 173.247 233.544 173.355C233.64 173.472 233.729 173.588 233.811 173.705C233.899 173.827 233.982 173.944 234.064 174.068C234.256 174.335 234.427 174.61 234.592 174.891C234.79 175.226 234.983 175.575 235.154 175.918C235.16 175.932 235.168 175.946 235.174 175.967C235.242 176.097 235.304 176.227 235.366 176.358C235.571 176.775 235.75 177.201 235.914 177.604C235.997 177.81 236.079 178.016 236.147 178.215C236.154 178.221 236.161 178.228 236.161 178.242C236.237 178.447 236.312 178.646 236.374 178.839C236.38 178.859 236.388 178.873 236.388 178.887C236.422 178.983 236.45 179.071 236.476 179.161C236.538 179.332 236.587 179.504 236.641 179.661C236.661 179.737 236.689 179.812 236.709 179.888L236.711 179.885Z" fill="black"/>
<path d="M308.678 191.301C311.761 196.215 312.899 204.212 312.899 204.212C314.503 199.868 314.214 191.247 309.76 176.343C305.306 161.439 290.915 156.471 280.979 158.526C271.043 160.582 269.502 169.49 272.928 168.093C276.354 166.695 268.131 175.658 272.071 173.089C276.011 170.519 273.442 172.404 269.159 179.373C265.527 185.287 265.842 198.902 266.027 202.891C266.754 201.903 267.733 200.664 268.988 199.643C272.667 196.642 271.982 197.669 271.133 201.014C270.27 204.358 274.381 199.903 279.357 200.246C284.318 200.589 283.632 201.439 287.922 203.151C292.198 204.864 291.26 203.926 288.689 206.152C286.12 208.38 284.317 207.351 291.259 207.441C298.2 207.523 302.819 212.06 305.217 214.979C307.616 217.883 300.078 212.662 294.171 213.429C294.171 213.429 303.367 215.416 308.849 218.843V218.849C309.184 219.062 309.513 219.274 309.814 219.493C314.714 203.787 305.661 186.506 308.676 191.301H308.678ZM302.393 185.333C301.365 188.678 299.481 189.191 300.762 189.534C302.05 189.877 297.939 191.843 299.309 191.843C300.678 191.843 298.795 192.789 292.031 192.789C285.266 192.789 281.067 190.562 278.49 188.198C275.927 185.827 274.81 185.251 275.748 183.88C276.694 182.51 276.433 182.249 278.667 176.514C280.887 170.779 284.834 167.776 288.685 168.119C292.537 168.462 295.709 171.12 298.45 174.89C301.192 178.659 303.501 180.111 303.501 180.111C304.761 181.098 303.419 181.996 302.391 185.332L302.393 185.333Z" fill="#2B2A2A"/>
<path d="M303.503 180.11C303.503 180.11 301.194 178.657 298.453 174.889C295.711 171.12 292.539 168.462 288.688 168.119C284.836 167.776 280.889 170.778 278.669 176.513C276.435 182.248 276.696 182.509 275.75 183.88C274.811 185.251 275.929 185.826 278.492 188.197C281.069 190.562 285.263 192.788 292.033 192.788C298.803 192.788 300.681 191.843 299.311 191.843C297.942 191.843 302.053 189.876 300.764 189.534C299.483 189.191 301.367 188.677 302.396 185.333C303.423 181.995 304.766 181.098 303.506 180.112L303.503 180.11ZM291.943 188.073C287.66 188.505 279.355 188.073 279.355 181.138C279.355 181.138 279.389 180.967 279.465 180.672C279.52 180.467 279.588 180.207 279.678 179.891V179.885C279.698 179.809 279.726 179.734 279.746 179.658C279.801 179.5 279.849 179.329 279.911 179.158C279.939 179.07 279.965 178.98 280 178.884C280 178.87 280.006 178.856 280.013 178.836C280.075 178.643 280.15 178.445 280.226 178.24C280.226 178.226 280.232 178.219 280.24 178.212C280.308 178.013 280.391 177.808 280.473 177.602C280.637 177.198 280.816 176.773 281.021 176.355C281.083 176.224 281.144 176.094 281.213 175.964C281.22 175.943 281.227 175.93 281.234 175.916C281.405 175.573 281.597 175.223 281.796 174.888C281.96 174.607 282.131 174.332 282.323 174.065C282.406 173.942 282.488 173.826 282.577 173.702C282.659 173.585 282.747 173.469 282.844 173.352C282.932 173.236 283.022 173.126 283.125 173.017C283.426 172.668 283.755 172.339 284.104 172.044C284.18 171.975 284.263 171.913 284.337 171.851C284.406 171.797 284.482 171.741 284.556 171.693C284.632 171.639 284.707 171.583 284.783 171.535C284.859 171.487 284.933 171.439 285.009 171.398C285.208 171.275 285.413 171.172 285.626 171.077C285.702 171.042 285.776 171.008 285.859 170.98C285.975 170.932 286.092 170.892 286.208 170.858C286.886 170.645 287.571 170.543 288.264 170.543C288.4 170.543 288.538 170.549 288.675 170.556C289.038 170.577 289.394 170.625 289.751 170.701C289.847 170.715 289.943 170.741 290.038 170.763C291.367 171.098 292.684 171.791 293.91 172.798C294.006 172.874 294.103 172.956 294.197 173.037C295.151 173.874 296.04 174.902 296.843 176.094C296.939 176.224 297.028 176.361 297.11 176.498C297.164 176.58 297.212 176.655 297.261 176.737C297.349 176.874 297.431 177.018 297.514 177.162C297.562 177.245 297.61 177.327 297.658 177.416C297.747 177.566 297.829 177.724 297.911 177.881C298.164 178.355 298.405 178.847 298.624 179.361L298.63 179.367C298.747 179.648 298.863 179.936 298.979 180.231C299.096 180.525 299.206 180.827 299.309 181.136C299.309 181.136 296.225 187.645 291.942 188.071L291.943 188.073Z" fill="#1D1D1B"/>
<path d="M299.309 181.138C299.309 181.138 296.226 187.648 291.943 188.073C287.66 188.505 279.355 188.073 279.355 181.138C279.355 181.138 279.389 180.967 279.465 180.672C279.52 180.467 279.588 180.207 279.678 179.891C281.028 183.784 284.722 186.58 289.072 186.58C293.422 186.58 297.446 183.53 298.625 179.364L298.631 179.37C298.747 179.651 298.864 179.938 298.98 180.233C299.097 180.528 299.207 180.829 299.309 181.138Z" fill="black"/>
<path d="M362.871 217.115C364.241 220.884 358.587 219.17 360.301 222.94C362.014 226.709 360.761 234.074 348.021 237.159C335.289 240.242 329.636 235.274 333.747 239.728C337.858 244.183 330.752 237.33 332.424 242.127C334.09 246.924 331.945 253.948 327.669 258.313C323.379 262.685 325.353 260.116 325.353 256.778C325.353 253.44 325.455 261.589 317.643 264.131C316.684 253.51 305.075 238.982 311.565 245.471C318.582 252.488 316.615 265 318.239 259.944C319.869 254.887 319.014 244.785 317.3 238.872C315.587 232.958 307.111 227.565 310.104 228.592C313.099 229.62 316.182 233.821 316.182 233.821C316.182 233.821 316.011 230.744 314.874 227.257C318.019 219.328 322.61 223.112 322.871 217.718C323.124 212.319 318.328 200.155 321.411 203.671C324.494 207.18 324.783 213.69 324.783 213.69C326.037 207.865 327.866 216.088 331.979 203.753C336.036 191.583 323.522 175.966 323.187 175.548C334.603 184.915 334.377 197.866 334.377 197.866C334.377 197.866 338.832 192.905 336.776 185.82C334.72 178.741 337.461 180.571 336.2 175.884C334.946 171.203 326.037 165.263 331.519 168.092C337.001 170.922 337.344 172.348 337.344 172.348C337.344 172.348 337.804 170.059 334.829 164.234C331.862 158.409 337.228 162.638 335.631 150.872C334.034 139.113 317.814 134.884 324.667 136.255C331.094 137.543 332.595 141.634 332.76 142.141C332.698 141.833 332.348 140.242 331.445 138.098C331.445 138.098 339.283 136.139 345.225 144.82C349.432 150.967 352.208 160.369 355.613 167.77C354.742 166.961 353.797 166.001 352.762 164.865C344.197 155.442 339.4 151.159 346.937 162.638C354.475 174.116 364.411 175.83 354.475 174.116C344.539 172.403 363.062 186.451 353.714 183.881C344.367 181.312 369.722 193.646 357.044 193.646C344.367 193.646 354.989 195.017 361.328 206.666C367.667 218.316 361.499 213.348 362.869 217.116L362.871 217.115Z" fill="#2B2A2A"/>
<path d="M336.2 175.883C337.461 180.57 334.72 178.741 336.776 185.819C338.831 192.905 334.377 197.865 334.377 197.865C334.377 197.865 334.604 184.914 323.187 175.546C323.522 175.964 336.035 191.582 331.979 203.752C327.868 216.087 326.037 207.863 324.783 213.688C324.783 213.688 324.496 207.178 321.411 203.67C318.328 200.155 323.124 212.317 322.87 217.717C322.61 223.11 318.019 219.327 314.873 227.256C314.209 225.214 313.215 223.028 311.728 221.226C311.228 220.616 310.577 220.04 309.817 219.492C314.716 203.785 305.664 186.504 308.679 191.3C311.762 196.213 312.9 204.21 312.9 204.21C314.504 199.866 314.215 191.245 309.761 176.341C305.307 161.437 290.917 156.469 280.98 158.524C271.044 160.58 269.503 169.488 272.929 168.091C276.355 166.694 268.132 175.656 272.072 173.087C276.012 170.517 273.443 172.402 269.16 179.37C265.528 185.284 265.843 198.899 266.028 202.888C264.617 204.8 264.171 205.772 264.623 202.38C265.308 197.241 265.219 197.159 262.046 200.407C258.881 203.669 258.194 207.437 258.194 207.437C258.194 207.437 257.51 203.667 254.343 200.407C251.17 197.159 251.081 197.241 251.766 202.38C252.218 205.772 251.772 204.799 250.361 202.888C250.546 198.899 250.861 185.284 247.229 179.37C242.946 172.401 240.377 170.516 244.317 173.087C248.257 175.656 240.034 166.694 243.46 168.091C246.886 169.488 245.345 160.58 235.409 158.524C225.472 156.469 211.082 161.437 206.628 176.341C202.174 191.245 201.886 199.866 203.49 204.21C203.49 204.21 204.628 196.213 207.711 191.3C210.726 186.502 201.674 203.785 206.574 219.492C205.813 220.04 205.162 220.616 204.662 221.226C203.175 223.028 202.181 225.214 201.517 227.256C198.372 219.327 193.781 223.11 193.52 217.717C193.267 212.317 198.063 200.154 194.979 203.67C191.896 207.178 191.607 213.688 191.607 213.688C190.353 207.863 188.524 216.087 184.412 203.752C180.355 191.582 192.868 175.965 193.203 175.546C181.786 184.914 182.013 197.865 182.013 197.865C182.013 197.865 177.559 192.903 179.614 185.819C181.67 178.74 178.93 180.57 180.19 175.883C181.445 171.202 190.353 165.262 184.871 168.091C179.389 170.921 179.046 172.346 179.046 172.346C179.046 172.346 178.587 170.058 181.561 164.233C184.528 158.408 179.163 162.637 180.759 150.87C182.355 139.112 198.575 134.883 191.723 136.254C185.295 137.542 183.794 141.633 183.629 142.139C183.691 141.832 184.041 140.241 184.944 138.097C186.006 135.581 187.837 132.299 190.866 129.401C196.779 123.748 214.254 126.235 205.599 124.18C197.307 122.206 195.388 124.015 195.238 124.173C195.306 124.009 196.526 121.377 199.342 119.384C202.261 117.328 197.122 114.327 203.029 113.723C208.937 113.127 218.105 114.93 214.85 112.442C211.595 109.955 211.595 110.298 219.647 110.387C227.699 110.475 232.235 117.067 230.954 110.64C229.673 104.219 223.67 102.252 232.235 106.617C240.801 110.983 241.404 122.378 243.288 116.122C245.173 109.872 238.402 103.102 243.973 107.131C248.796 110.62 251.435 115.58 252.052 116.848C252.094 116.581 252.888 110.537 248.029 107.077C243.061 103.534 249.284 107.077 252.826 108.105C256.362 109.132 255.964 108.331 257.335 112.326C258.706 116.328 259.734 112.956 257.335 108.331C255.129 104.076 261.48 108.133 264.64 116.24C265.619 114.411 268.169 110.202 272.41 107.133C277.982 103.104 271.211 109.874 273.095 116.123C274.98 122.38 275.582 110.984 284.149 106.619C292.714 102.253 286.712 104.22 285.43 110.641C284.149 117.069 288.685 110.477 296.736 110.388C304.788 110.299 304.788 109.956 301.534 112.444C298.278 114.931 307.447 113.128 313.354 113.725C319.262 114.327 314.122 117.329 317.042 119.385C319.858 121.38 321.078 124.01 321.146 124.175C320.996 124.018 319.077 122.208 310.785 124.181C302.13 126.236 319.605 123.749 325.518 129.402C328.547 132.301 330.376 135.583 331.439 138.098C332.344 140.243 332.694 141.833 332.755 142.141C332.59 141.633 331.089 137.542 324.661 136.255C317.809 134.884 334.029 139.113 335.625 150.872C337.221 162.638 331.856 158.409 334.824 164.234C337.799 170.059 337.339 172.348 337.339 172.348C337.339 172.348 336.996 170.922 331.514 168.092C326.032 165.262 334.941 171.203 336.195 175.884L336.2 175.883Z" fill="#3C3C3B"/>
<path d="M376.747 225.454C377.55 232.875 379.714 235.274 375.603 228.538C371.492 221.795 375.151 232.498 375.151 232.498C375.151 232.498 372.636 231.731 369.553 239.042C366.469 246.354 358.246 248.533 358.246 248.533C358.246 248.533 360.987 245.325 361.213 240.186C361.446 235.047 357.903 249.889 351.852 253.549C345.795 257.202 343.396 256.742 343.396 256.742C343.396 256.742 347.165 255.714 347.282 249.546C347.398 243.38 345 254.685 339.058 258.571C333.117 262.457 337.304 258.798 331.445 262.682C326.908 265.683 320.35 266.705 317.609 267.014C317.623 266.911 317.629 266.815 317.643 266.712C317.732 265.89 317.725 265.026 317.643 264.129C325.455 261.586 325.353 253.432 325.353 256.776C325.353 260.12 323.379 262.684 327.669 258.312C331.945 253.946 334.09 246.922 332.424 242.125C330.752 237.328 337.858 244.181 333.747 239.727C329.636 235.273 335.289 240.241 348.021 237.157C360.759 234.074 362.014 226.707 360.301 222.938C358.589 219.168 364.242 220.882 362.871 217.113C361.5 213.343 367.668 218.312 361.329 206.663C354.99 195.013 344.369 193.643 357.046 193.643C369.722 193.643 344.368 181.309 353.716 183.878C363.063 186.448 344.54 172.4 354.476 174.113C364.412 175.825 354.476 174.113 346.939 162.635C339.401 151.157 344.197 155.439 352.764 164.862C353.799 165.999 354.745 166.959 355.614 167.766C357.019 170.823 358.533 173.536 360.301 175.537C366.16 182.177 369.778 185.062 369.998 185.24C369.697 185.144 364.866 183.588 361.329 181.595C357.676 179.539 365.215 185.816 370.011 187.529C374.808 189.241 372.066 195.869 375.493 198.382C378.919 200.891 379.714 207.859 379.714 207.859C379.714 207.859 376.972 203.062 371.95 200.438C366.927 197.806 376.288 206.605 378.686 214.143C381.085 221.681 375.945 218.022 376.747 225.45V225.454Z" fill="#1D1D1B"/>
<path d="M298.623 179.364C297.445 183.531 293.613 186.58 289.071 186.58C284.528 186.58 281.026 183.784 279.676 179.892V179.886C279.697 179.81 279.724 179.735 279.745 179.659C279.799 179.501 279.847 179.33 279.909 179.159C279.937 179.071 279.964 178.981 279.998 178.885C279.998 178.871 280.004 178.857 280.012 178.837C280.074 178.644 280.148 178.445 280.224 178.24C280.224 178.226 280.231 178.22 280.238 178.212C280.307 178.014 280.389 177.809 280.471 177.602C280.636 177.199 280.814 176.773 281.019 176.356C281.081 176.225 281.142 176.095 281.212 175.965C281.218 175.944 281.226 175.93 281.232 175.916C281.403 175.573 281.595 175.224 281.794 174.889C281.958 174.608 282.129 174.333 282.322 174.066C282.404 173.943 282.486 173.827 282.575 173.703C282.657 173.586 282.746 173.47 282.842 173.353C282.931 173.243 283.027 173.127 283.123 173.018C283.424 172.669 283.753 172.339 284.103 172.045C284.179 171.976 284.261 171.914 284.335 171.852C284.404 171.798 284.48 171.742 284.554 171.694C284.63 171.639 284.705 171.584 284.781 171.536C284.857 171.488 284.932 171.439 285.008 171.399C285.206 171.276 285.411 171.172 285.624 171.077C285.7 171.043 285.775 171.009 285.857 170.981C285.973 170.933 286.09 170.893 286.206 170.859C286.885 170.646 287.569 170.543 288.262 170.543C288.399 170.543 288.536 170.55 288.673 170.557C289.036 170.578 289.392 170.626 289.749 170.702C289.845 170.715 289.941 170.742 290.036 170.764C291.365 171.099 292.682 171.791 293.908 172.799C294.005 172.875 294.101 172.957 294.196 173.038C295.149 173.875 296.039 174.903 296.841 176.095C296.937 176.225 297.026 176.362 297.108 176.499C297.163 176.581 297.211 176.656 297.259 176.738C297.347 176.875 297.43 177.019 297.512 177.163C297.56 177.245 297.608 177.328 297.656 177.416C297.745 177.567 297.827 177.725 297.909 177.882C298.162 178.356 298.403 178.848 298.622 179.362L298.623 179.364Z" fill="black"/>
<path d="M227.24 182.328C229.142 182.328 230.683 180.787 230.683 178.885C230.683 176.984 229.142 175.443 227.24 175.443C225.339 175.443 223.797 176.984 223.797 178.885C223.797 180.787 225.339 182.328 227.24 182.328Z" fill="black"/>
<path d="M230.683 179.159C231.984 179.159 233.039 178.104 233.039 176.803C233.039 175.502 231.984 174.448 230.683 174.448C229.382 174.448 228.328 175.502 228.328 176.803C228.328 178.104 229.382 179.159 230.683 179.159Z" fill="#E6E7E8"/>
<path d="M289.153 182.328C291.055 182.328 292.596 180.787 292.596 178.885C292.596 176.984 291.055 175.443 289.153 175.443C287.252 175.443 285.71 176.984 285.71 178.885C285.71 180.787 287.252 182.328 289.153 182.328Z" fill="black"/>
<path d="M292.937 179.159C294.238 179.159 295.292 178.104 295.292 176.804C295.292 175.503 294.238 174.448 292.937 174.448C291.636 174.448 290.581 175.503 290.581 176.804C290.581 178.104 291.636 179.159 292.937 179.159Z" fill="#E6E7E8"/>
<path fill-rule="evenodd" clip-rule="evenodd" d="M146.761 0.801353C142.97 0.878203 139.862 3.88374 138.33 8.98333L138.319 8.97389C136.726 14.2662 137.543 20.1522 140.403 23.996C144.277 29.1845 150.22 29.1657 153.973 23.8811C157.276 19.2386 157.39 14.0729 155.944 8.83839C154.546 3.77099 150.874 0.717839 146.761 0.801353ZM181.904 20.1572C180.051 25.473 176.752 29.6263 171.154 31.4536C165.496 33.3039 160.939 30.0371 160.551 24.099C160.166 18.2305 164.502 11.0394 170.073 8.29535C173.294 6.70115 176.573 6.42133 179.558 8.60195C182.553 10.792 183.162 14.014 182.54 17.5194C182.431 18.1181 182.277 18.7094 182.115 19.3323L182.115 19.3329L182.114 19.3341L182.114 19.3359L182.113 19.3389L182.112 19.3436C182.043 19.6081 181.973 19.8783 181.904 20.1572ZM357.001 11.8129L356.995 11.8313C353.414 20.5689 350.316 29.4921 347.33 38.4524C346.482 40.9975 345.516 43.5758 344.542 46.1747L344.542 46.1751C342.424 51.8244 340.27 57.5704 339.221 63.2815C337.443 73.1398 343.646 77.028 351.962 78.2319C351.174 79.91 350.382 81.5906 349.591 83.2713C348.386 85.8305 347.18 88.3898 345.985 90.9397C345.237 92.5031 346.919 94.8855 348.675 93.6199C350.506 92.2798 352.337 90.949 354.169 89.6182C356 88.2874 357.831 86.9566 359.662 85.6165C360.37 85.0977 361.087 84.5885 361.805 84.0786L361.806 84.0784L361.806 84.0782L361.806 84.0779L361.806 84.0777L361.807 84.0775L361.807 84.0773L361.807 84.0771L361.807 84.0769L361.808 84.0767L361.808 84.0765L361.808 84.0763L361.809 84.0761L361.809 84.0759L361.809 84.0757L361.809 84.0755L361.81 84.0753L361.81 84.0751L361.81 84.0749C363.1 83.1589 364.394 82.2407 365.641 81.2612C366.258 80.7729 366.567 80.4716 366.702 80.2935C368.619 80.3232 371.011 81.2303 373.189 82.0565C374.235 82.4535 375.232 82.8319 376.104 83.0852C382.345 84.872 388.623 86.6216 394.901 88.2595L396.007 88.5481C407.353 91.5114 418.973 94.5461 430.663 95.5556C438.511 96.2256 442.734 94.8111 447.068 88.0361C453.608 77.6876 457.121 64.8449 459.998 53.0818C460.234 52.1235 460.569 50.9413 460.947 49.6112L460.947 49.6102C462.785 43.1387 465.615 33.1694 462.763 28.476C460.961 25.5131 455.583 24.2586 451.641 23.339C450.68 23.1148 449.804 22.9105 449.086 22.7062C437.988 19.542 426.74 16.9735 415.454 14.6283C402.524 11.9481 389.482 9.49127 376.366 8.41175C375.82 8.36425 375.183 8.2957 374.479 8.21995L374.478 8.21984L374.478 8.2198C369.116 7.64254 359.871 6.64727 357.195 11.3525C357.169 11.3996 357.145 11.4466 357.122 11.4934C357.066 11.588 357.015 11.6898 356.971 11.7992H357.005L357.001 11.8129ZM349.946 42.8821C351.011 39.6391 352.088 36.4037 353.192 33.1796L453.309 56.1716H453.57L453.533 56.2088C454.019 56.2088 454.43 55.911 454.579 55.4271L457.494 45.3019C457.569 45.0041 457.532 44.7063 457.382 44.4457C457.233 44.1851 456.971 43.999 456.672 43.9246L357.352 21.5251C358.372 18.7999 359.425 16.0862 360.523 13.3863C360.535 13.3664 360.547 13.3461 360.559 13.3255C362.3 10.2409 372.812 11.7047 377.651 12.3785C378.418 12.4854 379.043 12.5723 379.467 12.6182C390.529 13.7722 401.478 15.7823 412.352 17.9786C422.367 19.9887 432.307 22.2595 442.173 24.8652C442.93 25.0685 444.122 25.3027 445.536 25.5804C450.336 26.5231 457.692 27.9677 459.251 30.4117C460.253 31.9552 459.354 36.3038 458.822 38.8762C458.7 39.4679 458.597 39.9656 458.541 40.3136C457.681 45.5623 456.448 50.8111 455.103 55.9481L454.862 56.8436C452.12 67.0524 449.016 78.6114 442.808 87.2544C437.924 94.0332 428.983 92.0513 421.399 90.3701L421.398 90.3699C420.278 90.1216 419.188 89.88 418.145 89.674C406.784 87.4405 395.536 84.4625 384.363 81.3728C382.877 80.9649 381.031 80.2466 379.044 79.473L379.044 79.4729C374.684 77.776 369.641 75.8128 366.201 76.273C364.229 76.5386 361.8 78.6605 359.782 80.4228C358.972 81.1309 358.228 81.7809 357.606 82.229C355.947 83.4434 354.288 84.6502 352.628 85.8562L352.917 85.2442L352.919 85.2387L352.924 85.2277C354.127 82.674 355.33 80.1203 356.523 77.5759C357.158 76.1986 356.373 74.7468 354.841 74.6351C338.837 73.487 344.51 57.9141 348.487 46.9964L348.488 46.9946C349.024 45.5237 349.529 44.1373 349.946 42.8821ZM439.327 268.557C439.056 268.5 438.786 268.448 438.516 268.399C438.451 268.401 438.386 268.403 438.321 268.406C437.968 268.416 437.665 268.348 437.411 268.223C426.97 266.765 417.662 271.42 410.671 279.301C403.293 287.624 394.908 302.076 403.702 312.253C413.727 323.906 433.849 324.133 447.935 323.717C465.599 323.187 485.163 312.859 479.163 291.673C474.266 274.45 456.66 268.414 440.702 268.368C440.324 268.583 439.859 268.671 439.327 268.557ZM396.186 297.714C399.174 278.332 419.698 261.69 438.609 264.424C458.59 263.803 481.485 273.055 483.933 295.872C484.025 296.725 484.082 297.558 484.107 298.372C484.674 298.642 485.065 299.207 484.976 300.071C484.698 302.674 484.41 305.267 484.122 307.861L484.119 307.884L484.117 307.907C483.829 310.5 483.541 313.093 483.262 315.696C483.188 316.372 483.147 317.445 483.1 318.681V318.681V318.682V318.683V318.683V318.684V318.684V318.685V318.685V318.686V318.686V318.687C482.981 321.806 482.822 325.962 481.995 327.424C480.735 329.663 478.357 330.523 475.873 331.421C475.418 331.585 474.96 331.751 474.505 331.926C461.537 336.92 447.377 338.925 433.551 337.941C425.594 337.35 414.975 336.236 406.561 332.649C405.665 333.153 404.336 332.801 404.294 331.593C402.288 330.571 400.45 329.381 398.858 327.992C392.447 322.412 393.766 314.54 395.046 306.904C395.345 305.121 395.642 303.351 395.838 301.626C395.847 301.106 395.872 300.575 395.914 300.033C395.952 299.565 396 299.097 396.058 298.631C396.06 298.543 396.062 298.456 396.063 298.369V298.407C396.067 298.15 396.111 297.919 396.186 297.714ZM409.926 329.089C409.123 328.799 408.351 328.482 407.613 328.136C407.677 327.352 407.742 326.568 407.806 325.784L407.807 325.776L407.807 325.768L407.808 325.76L407.809 325.752L407.809 325.744L407.81 325.736L407.81 325.728L407.811 325.719L407.812 325.711L407.82 325.611C407.948 324.052 408.076 322.494 408.199 320.936C410.181 321.983 412.32 322.872 414.554 323.626L414.55 323.652L414.546 323.679C414.361 325.226 414.184 326.782 414.007 328.339L414.006 328.351C413.929 329.029 413.852 329.707 413.775 330.385C412.479 329.985 411.196 329.554 409.926 329.089ZM416.732 331.235C419.43 331.956 422.168 332.542 424.927 332.999C424.984 331.994 425.038 330.986 425.092 329.978C425.16 328.726 425.227 327.475 425.299 326.228C422.674 325.794 420.046 325.239 417.501 324.53C417.351 325.801 417.206 327.076 417.062 328.351L416.964 329.216C416.914 329.651 416.865 330.086 416.815 330.52C416.787 330.759 416.76 330.997 416.732 331.235ZM437.874 334.22C434.572 334.135 431.256 333.882 427.958 333.449C428.001 332.688 428.043 331.925 428.084 331.162C428.105 330.772 428.126 330.382 428.147 329.991L428.147 329.99L428.147 329.989L428.147 329.987L428.147 329.986L428.148 329.985L428.148 329.983L428.148 329.982L428.148 329.98L428.148 329.979L428.148 329.978C428.207 328.876 428.266 327.775 428.329 326.677C431.787 327.133 435.183 327.397 438.32 327.54C438.051 327.787 437.874 328.152 437.874 328.635V334.22ZM440.93 334.247C444.602 334.217 448.273 333.969 451.917 333.505C451.884 333.36 451.872 333.2 451.886 333.023L452.338 327.239C449.768 327.549 447.198 327.694 444.693 327.689C443.402 327.686 442.016 327.667 440.557 327.624C440.784 327.868 440.93 328.206 440.93 328.635V334.247ZM463.922 331.161C460.96 331.947 457.96 332.583 454.936 333.07C454.938 333.054 454.94 333.039 454.941 333.023L455.429 326.786C458.331 326.282 461.197 325.56 463.93 324.6C463.925 324.657 463.922 324.715 463.922 324.776V331.161ZM466.978 330.294C467.576 330.113 468.172 329.925 468.766 329.732L468.886 329.692C471.035 328.984 472.621 328.46 474.221 327.305C473.626 327.148 473.126 326.668 473.126 325.873V320.006C471.083 321.422 468.836 322.624 466.455 323.627C466.767 323.875 466.978 324.259 466.978 324.776V330.294ZM479.171 317.501C478.876 320.711 478.673 322.925 476.182 325.565V318.155C476.182 317.97 476.155 317.802 476.106 317.651C477.38 316.499 478.536 315.237 479.548 313.861C479.481 314.472 479.415 315.084 479.349 315.696C479.278 316.334 479.223 316.933 479.171 317.501ZM398.267 311.843C399.946 314.839 402.409 317.278 405.378 319.261C405.302 319.425 405.25 319.612 405.23 319.82C405.081 321.75 404.923 323.68 404.764 325.611L404.692 326.494C399.966 323.313 397.372 318.509 398.267 311.843ZM370.244 334.358C370.184 334.056 370.048 333.743 369.821 333.428C354.532 312.123 290.859 339.01 301.587 359.435C301.92 367.45 302.957 376.624 310.009 381.518C317.98 387.102 328.928 383.899 337.392 381.424L337.392 381.423L337.55 381.377C338.226 381.177 338.922 380.973 339.637 380.763L339.644 380.761C349.62 377.834 363.036 373.898 369.913 366.253C376.872 358.523 374.448 348.775 371.022 340.06C371.209 338.19 370.972 336.283 370.244 334.358ZM365.555 335.783C358.437 326.114 339.783 330.401 330.781 334.318C325.634 336.518 320.58 339.609 315.944 342.793C315.329 343.214 314.765 343.593 314.247 343.942C309.521 347.117 308.609 347.729 308.525 354.312C308.435 360.613 308.565 360.636 313.687 361.546L314.089 361.617C324.534 363.508 363.55 355.442 366.042 340.634C365.914 340.309 365.782 339.983 365.648 339.656C365.26 338.722 365.486 337.958 366.01 337.446C365.909 336.899 365.758 336.345 365.555 335.783ZM320.473 367.545C318.699 367.534 316.989 367.426 315.365 367.214C315.258 371.088 315.918 374.871 317.381 378.491C318.964 379.012 320.766 379.335 322.815 379.433C321.442 375.598 320.648 371.648 320.473 367.545ZM323.717 367.463C323.892 371.549 324.689 375.505 326.188 379.329C328.076 379.126 330.007 378.703 331.92 378.175C330.134 374.666 328.861 370.936 328.151 367.053C326.65 367.245 325.168 367.383 323.717 367.463ZM338.4 376.103C337.313 376.475 336.195 376.859 335.057 377.227C333.266 373.854 332.032 370.321 331.321 366.572C333.7 366.156 336.106 365.614 338.494 364.957L341.488 375.069C341.158 375.174 340.834 375.279 340.518 375.384C339.828 375.613 339.121 375.856 338.4 376.103L338.4 376.103L338.4 376.103ZM344.572 374.103C347.265 373.265 350.165 372.347 352.929 371.25C352.172 369.479 351.41 367.714 350.648 365.948C349.995 364.434 349.341 362.919 348.691 361.401C346.394 362.385 344.012 363.268 341.592 364.039L344.572 374.103ZM361.475 366.534C359.891 367.855 357.963 368.986 355.868 369.979C355.06 368.085 354.245 366.197 353.43 364.309C352.822 362.899 352.213 361.489 351.607 360.077C354.6 358.636 357.401 357.024 359.894 355.275C361.053 358.445 362.213 361.619 363.372 364.818C362.793 365.392 362.162 365.964 361.475 366.534ZM365.775 362.015C369.097 357.364 369.402 352.503 368.195 347.279C366.763 349.371 364.85 351.369 362.576 353.24C363.643 356.179 364.709 359.099 365.775 362.015ZM307.113 364.793C308.605 365.58 310.299 366.188 312.15 366.63C312 369.965 312.397 373.222 313.289 376.384C309.788 373.753 307.981 369.63 307.113 364.793ZM316.639 346.539C312.095 349.442 314.043 355.483 318.586 357.122C326.654 360.072 338.106 355.295 345.2 351.643C347.055 350.707 345.432 347.85 343.578 348.834C339.729 350.8 335.742 352.392 331.523 353.376C329.204 353.891 326.793 354.359 324.429 354.453C323.919 354.453 323.362 354.453 322.852 354.499C319.653 354.968 318.169 353.282 318.262 349.349C320.024 348.225 318.401 345.415 316.639 346.539ZM337.289 338.848L337.179 338.907V338.86C335.325 339.843 333.702 337.034 335.556 336.05C339.868 333.803 345.061 331.227 349.976 333.194C353.871 334.739 356.328 338.532 355.401 342.699C354.984 344.76 351.831 343.87 352.294 341.81C353.175 337.689 348.678 335.582 345.34 335.863C342.461 336.094 339.807 337.507 337.289 338.848ZM465.249 281.138C465.225 281.116 465.199 281.095 465.173 281.074C465.142 281.05 465.11 281.027 465.077 281.004C464.992 280.938 464.908 280.884 464.824 280.84C449.702 270.431 430.551 266.149 415.963 279.945C406.497 288.873 399.492 304.8 412.422 313.918C426.248 323.679 448.569 321.863 462.618 313.729C468.319 310.437 474.319 305.33 475.139 298.293C476.023 290.845 470.598 285.322 465.249 281.138ZM463.549 283.652C470.182 288.797 475.101 296.099 469.512 303.892C465.673 309.265 459.115 312.518 453.041 314.599C441.265 318.609 423.825 318.912 413.503 310.854C402.026 301.887 411.863 286.565 420.807 279.831C434.483 269.503 450.693 274.724 463.549 283.652ZM450.805 291.029C450.022 290.427 449.105 289.806 448.103 289.222C448.146 289.197 448.19 289.169 448.234 289.138C448.765 288.763 449.294 288.389 449.821 288.015L449.821 288.015L449.822 288.014C451.105 287.105 452.38 286.201 453.674 285.317C455.277 284.182 453.749 281.533 452.146 282.668L451.802 282.911L451.394 283.2C451.114 283.398 450.835 283.595 450.557 283.793L450.553 283.796L450.54 283.804C449.263 284.709 447.994 285.609 446.706 286.49C446.094 286.923 445.939 287.576 446.069 288.155C441.216 285.886 435.316 285.106 432.732 290.878C431.763 293.035 431.837 295.758 433.291 297.688C433.868 298.456 434.71 298.835 435.535 299.206L435.535 299.206C436.255 299.53 436.961 299.848 437.464 300.412C439.141 302.341 438.06 304.498 434.632 303.779C433.469 303.517 432.306 302.686 431.314 301.976C431.161 301.867 431.012 301.761 430.868 301.66C429.229 300.563 427.701 303.249 429.34 304.309C429.444 304.379 429.549 304.449 429.654 304.52C429.712 304.558 429.77 304.597 429.829 304.635L429.712 304.741C428.608 305.742 427.511 306.736 426.397 307.713C424.943 309.038 427.105 311.194 428.558 309.908C428.715 309.766 428.872 309.625 429.029 309.483C429.396 309.152 429.761 308.821 430.126 308.49C430.958 307.736 431.787 306.984 432.622 306.241C434.303 307.016 436.107 307.424 437.911 306.843C440.035 306.162 441.936 304.006 441.824 301.66C441.719 299.497 440.369 298.748 438.929 297.948C438.329 297.615 437.714 297.274 437.166 296.818C432.508 293.035 437.39 289.138 441.563 289.63C444.383 289.956 446.793 291.775 449.021 293.457L449.314 293.678C450.879 294.888 452.37 292.202 450.842 291.029H450.805ZM355.177 48.7638C354.822 50.2156 354.467 51.6767 354.112 53.1378C353.757 54.5989 353.402 56.0599 353.047 57.5117C352.823 58.4796 353.346 59.708 354.43 59.8941C367.92 62.4999 381.149 65.8873 394.228 70.0938C394.467 70.1717 394.692 70.2045 394.902 70.1996C395.898 70.9963 397.649 70.895 398.04 69.312C398.75 66.4085 399.46 63.5422 400.207 60.6386C400.407 59.8287 400.118 59.173 399.621 58.7499C399.521 58.1053 399.096 57.5297 398.264 57.3256C391.499 55.6502 384.725 53.9656 377.951 52.2809C371.179 50.5967 364.407 48.9125 357.644 47.2376C356.952 47.068 356.373 47.2515 355.953 47.6146C355.612 47.8407 355.342 48.2047 355.215 48.7266L355.177 48.7638ZM357.35 56.502C370.026 59.026 382.474 62.2724 394.788 66.1793L396.128 60.8155C389.734 59.2312 383.332 57.639 376.93 56.0468L376.908 56.0413L376.881 56.0346C370.775 54.5161 364.669 52.9977 358.57 51.4861C358.355 52.3703 358.139 53.2566 357.924 54.1428C357.733 54.9297 357.542 55.7166 357.35 56.502ZM418.929 72.7368C419.064 72.7437 419.196 72.7467 419.325 72.7457C418.359 69.3157 419.416 65.3147 422.223 63.1652C421.734 62.8041 421.16 62.5122 420.499 62.3137L420.461 62.351C420 62.2073 419.665 61.9514 419.443 61.6372C419.214 61.8994 418.885 62.1021 418.443 62.2021C412.539 63.5049 412.427 72.4017 418.929 72.7368ZM421.508 58.5912C423.35 59.1417 424.914 60.2322 426.079 61.6461C429.104 61.3245 432.253 62.7174 434.048 65.1218C438.733 67.2616 437.808 74.3616 433.466 77.2782C429.805 79.7091 424.517 79.4741 421.441 76.4079C420.632 76.5908 419.787 76.6732 418.929 76.6454C414.221 76.4965 410.147 73.109 409.998 68.2698C409.849 63.8027 412.95 59.4474 417.397 58.4423C418.333 58.2305 419.064 58.64 419.477 59.2604C419.883 58.6675 420.595 58.3116 421.508 58.5912ZM422.928 71.0244C422.672 69.422 423.15 67.6631 424.289 66.5791C424.576 68.2556 424.119 70.0395 422.967 71.255C422.952 71.1791 422.939 71.1023 422.928 71.0244ZM428.272 69.0887C428.022 71.3246 426.932 73.1798 425.362 74.4931C426.283 74.9723 427.385 75.1701 428.533 75.0447C429.804 74.8958 431.074 74.3747 432.008 73.4813C432.532 72.9594 433.13 71.8847 433.335 70.8612C432.549 70.8941 431.805 70.4765 431.635 69.461C431.569 69.068 431.454 68.6912 431.295 68.3371C430.499 68.0489 430.054 67.3309 429.962 66.5955C429.417 66.149 428.773 65.8221 428.074 65.6559C428.338 66.7618 428.413 67.9229 428.272 69.0887ZM30.6941 59.0389C30.9181 58.0208 31.1117 57.0754 31.295 56.1806L31.295 56.1805C31.6564 54.4161 31.9774 52.849 32.4103 51.3112C33.0293 49.1133 34.0682 47.0734 35.5942 45.3275C39.2721 41.1247 44.6298 41.0465 48.3702 45.2139C51.1942 48.361 52.322 52.2946 52.9131 56.3359C54.4333 66.6766 52.9757 76.7125 49.4873 86.5045C49.4246 86.6871 49.3435 86.8635 49.2617 87.0414C49.2071 87.1604 49.1521 87.2801 49.1021 87.4027C46.2265 93.9093 45.1402 94.4547 38.34 92.6615C30.8981 90.6921 23.6432 88.2638 17.2854 83.773C12.4285 80.3422 8.38561 76.1505 5.32076 71.0698C3.70678 68.4089 2.50616 65.5868 2.24239 62.4367C1.65045 55.2816 6.37555 50.5554 13.5817 51.2696C18.0529 51.7164 22.08 53.4737 25.8477 55.8432C26.8382 56.4728 27.8165 57.1249 28.9142 57.8566C29.4711 58.2278 30.0587 58.6194 30.6941 59.0389ZM42.2891 222.353C43.2995 221.612 44.2349 220.93 45.1186 220.285C46.9249 218.968 48.5146 217.809 50.0851 216.629C51.3125 215.707 52.4435 214.67 53.2787 213.349C54.7822 210.976 55.4774 208.505 54.0558 205.874C52.6678 203.311 50.2668 202.707 47.5993 202.965C44.5223 203.264 41.799 202.447 39.2078 200.885C37.7674 200.022 36.262 199.261 34.5626 199.02C31.0633 198.533 28.961 200.009 28.2257 203.451C27.8464 205.237 27.7095 207.05 27.9937 208.852C28.6265 212.921 28.3065 216.82 26.9652 220.772C25.6413 224.673 27.9542 227.258 32.15 227.04C33.9925 226.945 35.7423 226.415 37.3191 225.455C38.7474 224.589 40.1628 223.69 41.2696 222.987L41.2704 222.986C41.6417 222.751 41.9784 222.537 42.269 222.354L42.2891 222.353ZM36.445 186.527C38.2494 182.212 37.4524 178.071 35.1825 174.187L35.1725 174.187C35.0223 173.981 34.88 173.778 34.7408 173.579C34.4594 173.178 34.191 172.796 33.8969 172.437C32.0954 170.225 29.8185 168.916 26.9208 169.575C24.0426 170.224 22.4961 172.35 21.7859 175.111C20.5574 179.886 22.6644 186.244 26.4358 189.072C30.2488 191.928 34.6226 190.883 36.445 186.527ZM5.6339 194.542C3.3395 190.958 3.13189 187.536 5.06963 185.21C7.1683 182.696 10.9419 182.081 14.7502 183.879C18.6824 185.741 21.7671 188.496 22.8696 192.91C24.1232 197.915 21.0357 201.498 15.855 201.118C12.025 200.838 8.01564 198.261 5.6339 194.542ZM41.3307 177.73C39.0874 182.298 39.3644 186.865 41.3829 190.742L41.3834 190.752C44.5106 195.68 49.1471 195.829 51.8839 191.485C54.7315 186.956 54.5164 182.226 52.0571 177.593C50.979 175.583 49.5753 173.88 46.9074 173.938C44.1896 173.999 42.4298 175.498 41.3307 177.73ZM18.4158 207.902C21.2985 212.373 19.248 216.591 13.8876 217.199C8.86664 217.768 3.08824 214.575 0.719097 209.937C-1.01216 206.564 0.478772 203.173 4.1585 202.104C8.9063 200.72 15.5222 203.411 18.4158 207.902ZM145.51 67.1577L145.509 67.1575C144.329 66.8878 143.086 66.6038 141.754 66.3024L141.764 66.3019C141.236 66.1401 140.601 65.951 139.893 65.7404L139.892 65.7402L139.891 65.74C138.395 65.2948 136.574 64.7532 134.766 64.1697C132.56 63.4657 130.63 62.2584 129.028 60.5949C125.387 56.8115 125.968 52.5198 130.767 50.5743C135.625 48.6058 139.612 45.7143 142.973 41.7874C144.449 40.0541 146.296 38.6908 148.308 37.5885C152.193 35.4508 155.316 36.2271 157.717 39.925C158.884 41.7208 159.391 43.7604 159.74 45.8283C160.364 49.5385 161.817 52.7866 164.616 55.436C167.044 57.7352 168.423 60.4982 167.113 63.8995C165.758 67.393 162.837 68.7721 159.34 69.2928C157.397 69.5831 155.488 69.3628 153.599 68.9617C151.025 68.4178 148.463 67.8326 145.51 67.1577ZM171.183 39.5661C173.239 34.4892 177.359 30.4831 183.56 28.864C186.581 28.0686 189.466 28.5079 191.744 31.0145C193.981 33.4835 193.51 36.2026 192.463 38.8618C190.048 44.9652 185.712 49.0524 179.067 50.0657C172.681 51.0356 169.035 46.5539 171.183 39.5661ZM123.459 35.3042C128.404 39.8583 134.119 38.3343 136.027 31.9578L136.036 31.9473C137.944 25.5508 135.096 17.1054 129.902 13.7619C125.872 11.1764 121.425 12.5447 119.615 16.9401C117.126 22.9775 118.82 31.0436 123.459 35.3042ZM100.418 117.767L100.418 117.766C102.038 115.587 103.645 113.426 105.282 111.368C106.457 109.885 106.354 107.317 104.387 106.468C101.099 105.036 100.658 101.164 100.855 98.0094C101.094 94.1218 103.129 91.0923 106.992 90.0709C109.767 89.3362 115.334 89.8887 117.565 91.976C120.121 94.3539 118.963 97.7298 117.92 100.771L117.92 100.771C117.607 101.685 117.304 102.568 117.115 103.385C116.64 105.432 118.811 107.713 120.917 106.812C126.471 104.421 136.684 102.079 136.509 111.451C136.446 114.869 133.902 117.564 130.903 118.831C128.108 120.011 125.783 119.528 123.193 118.989L123.193 118.988C122.451 118.834 121.688 118.675 120.885 118.55C116.875 117.922 113.795 121.249 111.186 124.068L111.186 124.069C110.794 124.492 110.412 124.905 110.04 125.29C105.906 129.57 102.305 134.273 99.0169 139.23C98.776 139.592 98.6323 139.948 98.5697 140.289C98.4353 140.534 98.328 140.815 98.2544 141.132C97.64 143.767 98.3062 145.415 99.4023 147.821C101.425 152.253 101.435 155.356 96.5506 157.903C92.8653 159.826 85.5669 159.854 85.2681 154.092C85.2156 153.08 85.4257 152.149 85.6315 151.236C85.9602 149.779 86.278 148.37 85.4987 146.76C83.8288 143.3 80.708 143.84 77.5707 144.383C75.8812 144.676 74.1869 144.97 72.7117 144.639C66.2781 143.191 68.6745 135.336 71.4681 131.857C75.5306 126.78 80.2159 130.622 83.6996 133.886C85.386 135.464 87.5592 134.189 88.0445 132.475C92.6366 128.233 96.5651 122.949 100.418 117.767ZM85.0251 127.969C88.2288 121.096 93.6361 114.793 98.7754 109.161C93.2318 101.172 94.3034 88.5304 104.583 84.9388C109.933 83.0692 117.496 84.2892 121.913 87.9654C125.648 91.0749 125.253 95.2209 124.254 99.3208C129.433 97.8633 134.912 97.8388 138.97 102.141C142.806 106.208 143.573 112.707 140.964 117.619C137.962 123.252 131.427 126.224 125.223 125.735C124.409 125.67 123.672 125.501 122.966 125.34C121.354 124.971 119.907 124.64 118.08 125.674C116.764 126.42 115.492 127.899 114.361 129.214C113.97 129.669 113.596 130.103 113.243 130.481C109.923 134.038 106.927 137.868 104.223 141.924C104.153 142.029 104.079 142.128 104.001 142.221C103.995 142.279 103.987 142.338 103.978 142.397C103.775 143.643 104.635 145.029 105.496 146.415C106.12 147.422 106.745 148.429 106.963 149.382C107.445 151.52 107.167 153.897 106.301 155.915C104.362 160.422 99.9063 163.526 95.2167 164.621C90.6059 165.691 85.7213 164.763 82.4318 161.188C81.0412 159.668 80.0294 157.728 79.703 155.682C79.5231 154.53 79.608 153.464 79.7082 152.307C79.7486 151.86 79.8481 151.494 79.9317 151.186C80.1377 150.427 80.2465 150.026 79.1305 149.664C78.4523 149.444 77.3675 149.664 76.3371 149.873C75.6654 150.01 75.0169 150.141 74.5192 150.143C73.2683 150.158 72.0416 150.061 70.8335 149.744C68.925 149.242 67.2833 148.285 65.9641 146.792C62.4752 142.847 62.6781 137.299 64.6831 132.709C66.4185 128.714 69.6082 124.764 74.1583 124.067C78.2892 123.428 81.9116 125.454 85.0251 127.969Z" fill="url(#paint1_linear_34_1589)"/>
<defs>
<linearGradient id="paint0_linear_34_1589" x1="258.197" y1="316.465" x2="258.197" y2="91.394" gradientUnits="userSpaceOnUse">
<stop stop-color="#5E38CA"/>
<stop offset="1" stop-color="#30E9A1"/>
</linearGradient>
<linearGradient id="paint1_linear_34_1589" x1="504.88" y1="392.944" x2="10.746" y2="-29.642" gradientUnits="userSpaceOnUse">
<stop stop-color="#7B3EC8"/>
<stop offset="1" stop-color="#2EE6A6"/>
</linearGradient>
</defs>
</svg>
