<svg width="206" height="171" viewBox="0 0 206 171" fill="none" xmlns="http://www.w3.org/2000/svg">
<path d="M205.063 102.354C203.469 98.3274 201.914 94.399 200.312 90.3521C201.753 90.4774 203.036 90.5882 204.358 90.7039C199.482 81.9315 194.661 73.2575 189.84 64.5826C189.927 64.5233 190.014 64.4631 190.101 64.4038C191.622 66.0516 193.142 67.6985 194.662 69.3463C194.662 69.0366 194.557 68.7996 194.414 68.5884C190.031 62.1099 185.642 55.6362 181.264 49.1549C180.632 48.2201 179.94 47.3044 179.463 46.2912C177.548 42.2243 175.707 38.1219 173.839 34.033C173.054 32.3154 172.267 30.5988 171.48 28.8812L171.344 28.9184C171.48 29.7863 171.616 30.6542 171.759 31.5689C171.565 31.5402 171.452 31.5383 171.348 31.5068C168.152 30.5223 164.955 29.5407 161.764 28.5361C161.507 28.4549 161.254 28.2494 161.079 28.0353C159.504 26.1103 157.947 24.1719 156.387 22.2354C156.257 22.0739 156.145 21.898 155.938 21.6075H159.537L159.54 21.5224C157.272 20.8782 155.004 20.234 152.592 19.5496C154.167 18.8509 155.604 18.2143 157.238 17.4898C155.93 17.0588 154.828 16.6822 153.717 16.3343C152.038 15.8076 152.034 15.8153 152.125 14.0967C152.145 13.7134 152.183 13.3301 152.203 12.9469C152.235 12.3485 152.258 11.7492 152.283 11.1767H143.01C143.146 9.72292 143.277 8.3217 143.411 6.88321C139.529 7.43949 135.741 7.98143 131.94 8.52624V0.841537C131.724 0.922781 131.557 0.97439 131.397 1.04608C127.994 2.5725 124.592 4.09798 121.192 5.62918C120.053 6.14245 120.055 6.14915 119.377 5.13503C118.803 4.27767 118.229 3.41936 117.635 2.53236C115.284 4.00527 113.033 5.48008 110.716 6.84115C109.499 7.5561 108.521 8.38478 108.134 9.786C108.101 9.90356 108.013 10.0049 107.878 10.2419C107.165 8.0426 106.492 5.96754 105.819 3.89152L105.685 3.89726C105.137 5.75535 104.59 7.61344 104.014 9.57094C100.834 6.51235 97.7621 3.55794 94.6902 0.604492L94.5678 0.7039C95.6316 4.25282 96.6954 7.80079 97.7602 11.3497C97.7077 11.3679 97.656 11.386 97.6035 11.4042C97.1925 10.5067 96.8092 9.59388 96.3552 8.71836C96.1688 8.35993 95.883 7.99959 95.5504 7.7788C94.1951 6.87843 92.8063 6.02871 91.4261 5.16466C90.1099 4.34075 88.789 3.52163 87.4212 2.67C86.734 3.69654 86.0525 4.65139 85.4446 5.64926C85.134 6.1587 84.8635 6.22943 84.3187 5.97996C80.8051 4.37134 77.2734 2.79999 73.7465 1.21908C73.5505 1.13114 73.3479 1.06042 73.1204 0.971526V8.66006C69.2943 8.11238 65.5045 7.56948 61.6478 7.01702C61.7864 8.48706 61.9174 9.88827 62.0512 11.3124H52.7741C52.8419 12.5579 52.8439 13.8014 52.9987 15.0248C53.0962 15.7942 52.8066 16.0351 52.1385 16.2253C50.7535 16.621 49.3934 17.1037 47.8239 17.616C49.4507 18.3415 50.8911 18.9847 52.4644 19.6863C50.0366 20.3754 47.7666 21.0196 45.4956 21.6638L45.5109 21.7814H49.0684C48.9642 21.9582 48.9212 22.0548 48.8572 22.1341C47.1988 24.1948 45.5443 26.2584 43.8688 28.3058C43.713 28.4969 43.4377 28.6269 43.193 28.7034C40.1306 29.6621 37.0644 30.6074 33.9982 31.5527C33.7955 31.6148 33.5843 31.653 33.3014 31.7199C33.4505 30.767 33.5843 29.9115 33.7191 29.0551C33.5365 29.1507 33.4591 29.2778 33.3979 29.4116C31.1728 34.2824 28.9553 39.1561 26.7216 44.0231C26.1949 45.172 25.738 46.3782 25.0413 47.4201C20.5298 54.1652 15.9601 60.8721 11.4105 67.5924C11.0176 68.1726 10.6267 68.7547 10.2348 69.3368C10.2893 69.3846 10.3438 69.4323 10.3983 69.4801C11.9189 67.8342 13.4406 66.1883 14.9613 64.5424C15.0473 64.6026 15.1343 64.6629 15.2203 64.7231C10.3925 73.4095 5.56472 82.0949 0.704431 90.8406C2.05212 90.724 3.33769 90.6131 4.75229 90.4907C3.13983 94.5625 1.58856 98.4794 0 102.49C1.70325 102.34 3.30901 102.198 5.01227 102.048C4.41202 104.816 3.83662 107.472 3.25071 110.175C5.13652 110.367 6.93249 110.557 8.73037 110.728C9.07924 110.762 9.31628 110.816 9.37649 111.239C9.58295 112.669 9.84675 114.091 10.0446 115.521C10.1163 116.039 10.3342 116.355 10.7834 116.629C17.822 120.934 24.8482 125.26 31.8839 129.57C32.2634 129.802 32.6849 129.991 33.1121 130.12C39.388 131.997 45.6676 133.863 51.9511 135.717C52.3669 135.839 52.5743 136.044 52.7062 136.459C53.6276 139.366 54.5748 142.264 55.5163 145.164C55.9263 146.427 56.344 147.686 56.7684 148.982C57.2836 148.767 57.7347 148.579 58.2145 148.379C58.3484 148.579 58.4659 148.741 58.5692 148.912C60.9224 152.798 63.2698 156.687 65.6307 160.57C65.8151 160.873 66.0426 161.172 66.315 161.394C68.5555 163.226 70.8102 165.039 73.0631 166.857C73.281 167.033 73.5094 167.196 73.8181 167.432C73.9997 164.567 74.1718 161.838 74.3496 159.023C75.1429 159.438 75.8139 159.788 76.5231 160.158C77.389 158.711 78.2168 157.328 79.1066 155.839C80.4744 158.89 81.7867 161.819 83.1755 164.917C83.5989 163.663 83.9593 162.595 84.3311 161.495C86.6671 162.728 88.9152 163.914 91.2951 165.17V162.392C91.5714 162.604 91.7319 162.717 91.881 162.843C94.1042 164.73 96.2854 166.671 98.5746 168.474C99.1805 168.952 99.5323 169.424 99.6948 170.118C99.7015 170.147 99.7645 170.162 99.8448 170.21C100.543 169.141 101.24 168.071 102.052 166.827C102.921 169.013 104.489 170.161 106.653 170.563C106.672 170.53 106.749 170.458 106.757 170.377C107.012 168.098 108.299 166.509 110.146 165.291C110.22 165.242 110.281 165.173 110.351 165.115C111.448 164.187 112.546 163.261 113.784 162.216V165.03C116.171 163.771 118.434 162.577 120.738 161.361C121.119 162.495 121.475 163.553 121.89 164.784C123.28 161.682 124.596 158.748 125.959 155.706C126.863 157.22 127.7 158.622 128.543 160.035C129.276 159.646 129.932 159.299 130.716 158.883C130.895 161.737 131.067 164.465 131.247 167.321C131.633 167.014 131.897 166.807 132.158 166.596C134.304 164.862 136.454 163.136 138.587 161.386C138.927 161.107 139.236 160.754 139.464 160.378C141.806 156.537 144.128 152.684 146.457 148.837C146.581 148.632 146.725 148.439 146.859 148.242C147.36 148.457 147.794 148.643 148.273 148.849C148.379 148.564 148.48 148.316 148.563 148.062C149.832 144.153 151.104 140.245 152.354 136.33C152.486 135.918 152.69 135.708 153.106 135.586C158.913 133.872 164.715 132.147 170.515 130.411C171.355 130.16 172.26 129.982 172.993 129.537C180.14 125.193 187.26 120.804 194.374 116.405C194.654 116.233 194.903 115.846 194.967 115.521C195.245 114.105 195.465 112.676 195.67 111.246C195.732 110.816 195.873 110.618 196.335 110.591C197.214 110.541 198.091 110.427 198.967 110.336C199.9 110.24 200.833 110.139 201.813 110.035C201.22 107.307 200.647 104.667 200.05 101.916C201.759 102.067 203.363 102.208 205.061 102.357L205.063 102.354ZM189.89 64.2681L189.935 64.27L189.959 64.3178H189.867L189.89 64.2681ZM15.1028 64.4526L15.1266 64.4038L15.1716 64.4057L15.1955 64.4535H15.1037L15.1028 64.4526Z" fill="url(#paint0_linear_34_1562)"/>
<path d="M147.163 111.969C145.87 107.504 139.469 103.431 141.729 104.207C143.991 104.983 146.319 108.155 146.319 108.155C146.319 108.155 146.19 105.832 145.331 103.199C144.829 101.657 144.079 100.006 142.956 98.6452C142.578 98.1845 142.087 97.7496 141.512 97.3357C141.285 97.1704 141.036 97.0098 140.783 96.8492V96.8444C136.643 94.257 129.699 92.7564 129.699 92.7564C134.159 92.1772 139.851 96.1199 138.04 93.9254C136.229 91.7213 132.741 88.2957 127.499 88.2335C122.258 88.1666 123.619 88.9427 125.559 87.2605C127.499 85.5783 128.208 86.2875 124.98 84.9943C121.74 83.7011 122.258 83.0588 118.512 82.7998C114.755 82.5407 111.65 85.9042 112.302 83.379C112.943 80.8537 113.461 80.0776 110.682 82.3438C109.735 83.1152 108.995 84.0519 108.446 84.7964C107.38 86.2407 107.044 86.9747 107.385 84.4132C107.902 80.5326 107.835 80.4704 105.439 82.9231C103.049 85.3862 102.531 88.2316 102.531 88.2316C102.531 88.2316 102.014 85.3852 99.6221 82.9231C97.2258 80.4704 97.1589 80.5326 97.676 84.4132C98.0173 86.9747 97.6808 86.2397 96.6151 84.7964C96.0664 84.0509 95.3267 83.1152 94.3795 82.3438C91.6009 80.0776 92.118 80.8537 92.7603 83.379C93.4122 85.9042 90.3077 82.5407 86.5504 82.7998C82.8036 83.0588 83.3217 83.7001 80.0824 84.9943C76.8537 86.2875 77.562 85.5792 79.5032 87.2605C81.4435 88.9427 82.8046 88.1657 77.5629 88.2335C72.3213 88.2957 68.8335 91.7213 67.0223 93.9254C65.211 96.1199 70.9028 92.1762 75.3636 92.7564C75.3636 92.7564 68.4197 94.257 64.28 96.8444V96.8492C64.0268 97.0098 63.7782 97.1704 63.5508 97.3357C62.9763 97.7496 62.485 98.1845 62.1075 98.6452C60.9844 100.006 60.2341 101.657 59.7323 103.199C58.873 105.833 58.744 108.155 58.744 108.155C58.744 108.155 61.0723 104.983 63.3338 104.207C65.5952 103.431 59.1942 107.504 57.9 111.969C56.6068 116.435 55.9597 124.062 57.1908 127.881C58.4171 131.7 56.9318 122.252 62.2308 116.953C67.1312 112.052 58.3655 123.022 57.641 131.043C57.5789 131.721 57.5741 132.373 57.641 132.994C57.6515 133.072 57.6563 133.144 57.6668 133.222C58.5519 141.072 61.9096 143.985 61.9096 143.985C61.9096 143.985 60.6785 137.325 64.3001 131.633C67.9226 125.941 60.1605 139.265 63.3997 146.898C66.6285 154.53 71.6637 157.118 71.7516 159.964C71.8348 162.811 72.6988 159.876 72.2687 156.254C71.8338 152.631 70.4574 147.891 72.8689 142.112C75.2852 136.332 72.5277 142.888 74.1622 149.444C75.8023 155.995 77.3546 155.566 77.3546 155.566C77.3546 155.566 74.7672 148.813 77.5562 142.112C77.5973 141.998 77.649 141.878 77.7006 141.765C80.7171 134.954 79.0769 137.972 80.0289 140.988C80.9761 144.011 79.4239 136.508 85.6328 131.503C85.6328 131.503 84.7688 133.143 85.5449 136.849C86.321 140.559 85.8039 133.226 89.6013 130.639C89.6013 130.639 89.3997 131.342 89.5756 132.637C89.5756 131.493 89.9168 130.075 91.231 129.087C94.3355 126.758 92.4363 128.311 93.3835 131.245C93.3835 131.245 94.2886 127.452 95.9709 126.112C97.6531 124.777 96.1525 126.759 95.7587 129.005C95.3706 131.245 97.9112 123.483 102.527 123.483C107.142 123.483 109.683 131.245 109.295 129.005C108.902 126.758 107.401 124.777 109.083 126.112C110.765 127.452 111.67 131.245 111.67 131.245C112.617 128.311 110.718 126.758 113.823 129.087C115.137 130.075 115.479 131.493 115.479 132.637C115.655 131.343 115.453 130.639 115.453 130.639C119.252 133.226 118.733 140.558 119.511 136.849C120.287 133.144 119.423 131.503 119.423 131.503C125.632 136.507 124.079 144.01 125.027 140.988C125.979 137.972 124.338 134.954 127.355 141.765C127.406 141.878 127.458 141.998 127.5 142.112C130.289 148.813 127.702 155.566 127.702 155.566C127.702 155.566 129.254 155.995 130.894 149.444C132.53 142.888 129.771 136.331 132.187 142.112C134.599 147.891 133.223 152.631 132.788 156.254C132.359 159.876 133.223 162.81 133.305 159.964C133.393 157.118 138.428 154.53 141.657 146.898C144.896 139.266 137.134 125.941 140.756 131.633C144.379 137.325 143.147 143.985 143.147 143.985C143.147 143.985 146.505 141.072 147.39 133.222C147.4 133.144 147.405 133.072 147.415 132.994C147.482 132.373 147.478 131.721 147.415 131.043C146.691 123.023 137.925 112.052 142.826 116.953C148.125 122.252 146.639 131.7 147.866 127.881C149.097 124.063 148.451 116.435 147.156 111.969H147.163ZM111.2 111.281C106.931 113.175 107.665 113.868 106.196 116.844C104.732 119.819 102.533 119.214 102.533 119.214C102.533 119.214 100.333 119.819 98.8689 116.844C97.3988 113.868 98.1339 113.175 93.8652 111.281C89.5966 109.382 87.8264 107.571 89.8135 104.895C91.7949 102.225 96.1525 99.3324 102.533 99.3324C108.913 99.3324 113.27 102.225 115.251 104.895C117.239 107.571 115.468 109.382 111.2 111.281Z" fill="#474747"/>
<path d="M111.199 111.281C106.93 113.175 107.664 113.868 106.195 116.843C104.731 119.819 102.532 119.214 102.532 119.214C102.532 119.214 100.332 119.819 98.868 116.843C97.398 113.868 98.133 113.175 93.8644 111.281C89.5957 109.381 87.8256 107.57 89.8127 104.895C91.7941 102.224 96.1516 99.332 102.532 99.332C108.912 99.332 113.269 102.224 115.251 104.895C117.238 107.57 115.468 109.381 111.199 111.281Z" fill="#1D1D1B"/>
<path d="M123.55 153.175C119.54 157.832 117.6 158.221 117.6 158.221C117.6 158.221 121.16 154.143 121.418 148.518C121.677 142.889 119.866 154.402 114.82 157.895C114.82 157.895 114.432 156.928 112.554 158.221C110.681 159.514 110.355 159.385 110.355 159.385C110.355 159.385 113.201 154.272 113.201 150.748C113.201 147.224 110.292 156.151 108.74 158.671C107.188 161.196 107.379 158.744 105.956 159.385C104.533 160.032 104.859 159.576 105.309 156.343C105.764 153.108 104.792 159.132 102.53 159.841C100.264 159.132 99.2959 153.109 99.7461 156.343C100.201 159.577 100.522 160.027 99.1047 159.385C97.6767 158.744 97.8727 161.196 96.3204 158.671C94.7682 156.146 91.8597 147.224 91.8597 150.748C91.8597 154.272 94.7061 159.385 94.7061 159.385C94.7061 159.385 94.3801 159.509 92.502 158.216C90.6286 156.923 90.2405 157.895 90.2405 157.895C85.1948 154.402 83.3845 142.889 83.6426 148.518C83.9016 154.143 87.461 158.216 87.461 158.216C87.461 158.216 85.515 157.833 81.5102 153.176C77.4948 148.519 77.5569 142.113 77.5569 142.113C77.598 141.999 77.6496 141.879 77.7013 141.766C80.7178 134.956 79.0776 137.973 80.0296 140.99C80.9768 144.012 79.4246 136.509 85.6335 131.504C85.6335 131.504 84.7695 133.144 85.5456 136.85C86.3217 140.56 85.8046 133.227 89.602 130.64C89.602 130.64 89.4004 131.344 89.5762 132.638C89.5762 131.495 89.9175 130.076 91.2317 129.088C94.3362 126.759 92.437 128.312 93.3842 131.246C93.3842 131.246 94.2893 127.453 95.9716 126.113C97.6538 124.778 96.1532 126.76 95.7594 129.006C95.3713 131.246 97.9119 123.484 102.527 123.484C107.143 123.484 109.684 131.246 109.296 129.006C108.903 126.759 107.402 124.778 109.083 126.113C110.766 127.453 111.671 131.246 111.671 131.246C112.618 128.312 110.719 126.759 113.823 129.088C115.137 130.076 115.48 131.494 115.48 132.638C115.656 131.344 115.454 130.64 115.454 130.64C119.252 133.227 118.734 140.559 119.511 136.85C120.287 133.145 119.423 131.504 119.423 131.504C125.633 136.508 124.08 144.011 125.027 140.99C125.979 137.973 124.339 134.956 127.356 141.766C127.407 141.879 127.459 141.999 127.501 142.113C127.501 142.113 127.557 148.518 123.548 153.176L123.55 153.175Z" fill="#3C3C3B"/>
<path d="M94.2504 67.0382C91.016 61.7755 89.0757 60.3523 92.0511 62.2926C95.0265 64.2329 88.8166 57.4648 91.404 58.5201C93.9914 59.5753 92.8272 52.8483 85.3241 51.296C77.821 49.7438 66.9544 53.4954 63.5909 64.75C60.2274 76.0047 60.0104 82.5147 61.2205 85.795C61.2205 85.795 62.0798 79.7562 64.4081 76.0458C66.6849 72.4233 59.8489 85.4739 63.5489 97.3345C63.7763 97.1692 64.0248 97.0086 64.2781 96.848V96.8432C68.4177 94.2559 75.3617 92.7552 75.3617 92.7552C70.9009 92.176 65.2091 96.1187 67.0204 93.9251C68.8316 91.7211 72.3194 88.2954 77.561 88.2333C82.8027 88.1664 81.4416 88.9425 79.5013 87.2603C77.561 85.5781 76.8518 86.2873 80.0805 84.9941C83.3198 83.7009 82.8027 83.0585 86.5485 82.8005C90.3048 82.5415 93.4103 85.905 92.7584 83.3797C92.117 80.8545 91.599 80.0783 94.3785 82.3446C95.3257 83.1159 96.0655 84.0526 96.6141 84.7972C96.7537 81.7854 96.9917 71.5038 94.2495 67.0382H94.2504ZM87.2023 73.7031C85.2562 75.4885 82.0896 77.1698 76.977 77.1698C71.8644 77.1698 70.4469 76.4558 71.4811 76.4558C72.5153 76.4558 69.4108 74.9705 70.3838 74.7124C71.3511 74.4534 69.9289 74.0653 69.1528 71.5401C68.3766 69.0196 67.3625 68.3419 68.3145 67.5974C68.3145 67.5974 70.0579 66.5001 72.1282 63.6547C74.1985 60.8083 76.5937 58.8011 79.5023 58.542C82.4108 58.283 85.391 60.5502 87.0675 64.881C88.7545 69.2117 88.5576 69.4086 89.2716 70.4438C89.9808 71.4789 89.1368 71.9138 87.2013 73.704L87.2023 73.7031Z" fill="#2B2A2A"/>
<path d="M89.2715 70.4427C88.5575 69.4076 88.7544 69.2107 87.0674 64.8799C85.3909 60.5491 82.4107 58.282 79.5022 58.541C76.5936 58.8 74.1984 60.8072 72.1281 63.6536C70.0578 66.5 68.3144 67.5963 68.3144 67.5963C67.3624 68.3418 68.3765 69.0195 69.1527 71.539C69.9288 74.0643 71.352 74.4523 70.3837 74.7114C69.4107 74.9704 72.5161 76.4548 71.481 76.4548C70.4459 76.4548 71.8691 77.1688 76.9769 77.1688C82.0848 77.1688 85.2561 75.4875 87.2022 73.702C89.1377 71.9118 89.9807 71.4769 89.2724 70.4418L89.2715 70.4427ZM77.0438 73.6093C73.8094 73.2882 71.481 68.3724 71.481 68.3724C71.5584 68.1392 71.6416 67.9117 71.7295 67.689C71.8174 67.4663 71.9054 67.2494 71.9933 67.0372L71.9981 67.0324C72.1635 66.6443 72.3451 66.2716 72.5362 65.9151C72.5984 65.7956 72.6605 65.6771 72.7274 65.5633C72.7637 65.4964 72.8 65.4343 72.8363 65.3721C72.8985 65.2632 72.9606 65.1552 73.0275 65.051C73.0638 64.9889 73.1001 64.9325 73.1412 64.8703C73.2034 64.7671 73.2703 64.6629 73.3429 64.5654C73.9479 63.6651 74.6208 62.889 75.3406 62.2572C75.4132 62.195 75.4859 62.1329 75.5575 62.0765C76.4837 61.3157 77.4778 60.7929 78.4814 60.5396C78.554 60.5243 78.6266 60.5033 78.6983 60.4927C78.9679 60.4354 79.2364 60.4 79.5108 60.3838C79.614 60.379 79.7182 60.3733 79.8214 60.3733C80.3442 60.3733 80.8613 60.4507 81.3736 60.6113C81.4616 60.6371 81.5495 60.6686 81.6374 60.704C81.6996 60.725 81.7569 60.7508 81.8133 60.7766C81.9739 60.8493 82.1287 60.9267 82.2788 61.0194C82.3361 61.05 82.3925 61.0863 82.4499 61.1226C82.5072 61.1589 82.5636 61.2 82.621 61.2421C82.6783 61.2784 82.7347 61.3195 82.7863 61.3616C82.8437 61.4084 82.9058 61.4543 82.9622 61.5069C83.226 61.7296 83.4745 61.9781 83.702 62.2419C83.7794 62.325 83.8473 62.4072 83.9142 62.4952C83.9868 62.5831 84.0537 62.671 84.1159 62.759C84.1828 62.8517 84.2449 62.9396 84.307 63.0333C84.4523 63.235 84.5813 63.4424 84.7056 63.6546C84.8556 63.9078 85.0009 64.1717 85.13 64.4307C85.1348 64.4412 85.1405 64.4517 85.1453 64.467C85.1969 64.5654 85.2437 64.6639 85.2905 64.7623C85.4454 65.0778 85.5802 65.3989 85.7044 65.7038C85.7665 65.8587 85.8287 66.0145 85.8803 66.1645C85.8851 66.1693 85.8908 66.175 85.8908 66.1855C85.9481 66.3404 86.0045 66.4904 86.0514 66.6357C86.0562 66.651 86.0619 66.6615 86.0619 66.672C86.0877 66.7447 86.1087 66.8116 86.1288 66.8795C86.1756 67.0085 86.2119 67.1385 86.253 67.257C86.2683 67.3143 86.2894 67.3707 86.3047 67.4281V67.4329C86.3716 67.6709 86.4232 67.8678 86.4652 68.0226C86.5226 68.2453 86.5484 68.3743 86.5484 68.3743C86.5484 73.6112 80.2764 73.9372 77.0429 73.6112L77.0438 73.6093Z" fill="#1D1D1B"/>
<path d="M86.5503 68.3723C86.5503 73.6092 80.2782 73.9351 77.0447 73.6092C73.8103 73.288 71.4819 68.3723 71.4819 68.3723C71.5594 68.1391 71.6425 67.9116 71.7304 67.6889C71.8184 67.4662 71.9063 67.2492 71.9942 67.037L71.999 67.0322C72.8889 70.1788 75.7821 72.4813 79.2125 72.4813C82.6429 72.4813 85.2876 70.3699 86.3065 67.4308C86.3734 67.6688 86.4251 67.8657 86.4671 68.0205C86.5245 68.2432 86.5503 68.3723 86.5503 68.3723Z" fill="black"/>
<path d="M57.6417 131.043C51.7424 129.123 51.8199 122.965 51.8199 125.491C51.8199 128.016 53.31 129.951 50.0707 126.65C46.842 123.353 45.2219 118.05 46.4798 114.427C47.7424 110.805 42.3765 115.979 45.4809 112.616C48.5854 109.252 44.3168 113.004 34.7023 110.676C25.083 108.347 24.1358 102.784 25.429 99.9381C26.7222 97.0917 22.4536 98.3858 23.4887 95.5394C24.5239 92.693 19.8662 96.4446 24.6529 87.6483C29.4396 78.851 37.4598 77.8168 27.8873 77.8168C18.3149 77.8168 37.4607 68.5024 30.4021 70.4427C23.3444 72.383 37.3307 61.7754 29.8276 63.0687C22.3245 64.3619 29.8276 63.0687 35.5195 54.4014C41.2113 45.7341 37.5898 48.9676 31.1208 56.0826C30.3399 56.9419 29.625 57.6664 28.9684 58.2762C31.5405 52.6876 33.6356 45.5879 36.8127 40.9464C41.2993 34.3905 47.2186 35.8701 47.2186 35.8701C46.5352 37.4902 46.2714 38.6907 46.2255 38.923C46.3498 38.5397 47.4834 35.4505 52.337 34.4785C57.5117 33.4433 45.263 36.6367 44.0577 45.5162C42.8525 54.4014 46.9041 51.208 44.6637 55.6067C42.4176 60.0053 42.7645 61.7334 42.7645 61.7334C42.7645 61.7334 43.0235 60.6572 47.1632 58.52C51.3028 56.3828 44.5758 60.8693 43.6286 64.4039C42.6766 67.9433 44.7459 66.5621 43.1937 71.907C41.6414 77.2576 45.0049 81.0035 45.0049 81.0035C45.0049 81.0035 44.8339 71.2236 53.4553 64.1497C53.202 64.4651 43.7528 76.2588 46.8162 85.4489C49.9207 94.7633 51.3028 88.5534 52.25 92.9521C52.25 92.9521 52.4669 88.0363 54.7963 85.3868C57.1246 82.7325 53.503 91.9169 53.6942 95.9944C53.8911 100.067 57.3578 97.2102 59.733 103.197C58.8737 105.832 58.7447 108.154 58.7447 108.154C58.7447 108.154 61.0731 104.982 63.3345 104.206C65.5959 103.43 59.1949 107.502 57.9007 111.968C56.6075 116.433 55.9604 124.061 57.1915 127.88C58.4178 131.699 56.9325 122.25 62.2315 116.951C67.1319 112.051 58.3662 123.021 57.6417 131.042V131.043Z" fill="#2B2A2A"/>
<path d="M57.668 133.222C55.5977 132.988 50.6457 132.218 47.2201 129.951C42.7956 127.016 45.9574 129.78 41.4709 126.846C36.9843 123.912 35.173 115.375 35.261 120.031C35.3489 124.688 38.1953 125.465 38.1953 125.465C38.1953 125.465 36.384 125.812 31.8095 123.054C27.2408 120.29 24.5655 109.083 24.7413 112.963C24.9124 116.844 26.9817 119.266 26.9817 119.266C26.9817 119.266 20.7719 117.62 18.4435 112.099C16.1152 106.577 14.216 107.158 14.216 107.158C14.216 107.158 16.9792 99.0753 13.8747 104.167C10.7703 109.254 12.4047 107.442 13.0107 101.839C13.6167 96.2289 9.73512 98.9921 11.5464 93.3003C13.3576 87.6085 20.4259 80.9637 16.6332 82.9508C12.8405 84.9331 10.7703 88.5547 10.7703 88.5547C10.7703 88.5547 11.3705 83.292 13.9579 81.3986C16.5453 79.4994 14.475 74.4957 18.0975 73.2025C21.72 71.9093 27.4119 67.1685 24.6534 68.7217C21.9838 70.228 18.3355 71.4017 18.108 71.4744C18.2734 71.3396 21.006 69.1613 25.4305 64.1472C26.7657 62.636 27.9089 60.5868 28.9698 58.2794C29.6274 57.6687 30.3414 56.9442 31.1223 56.0858C37.5903 48.9708 41.2128 45.7363 35.521 54.4046C29.8291 63.0719 22.326 64.366 29.8291 63.0719C37.3322 61.7787 23.3459 72.3862 30.4036 70.4459C37.4612 68.5056 18.3154 77.82 27.8888 77.82C37.4622 77.82 29.441 78.8551 24.6544 87.6515C19.8677 96.4487 24.5253 92.6972 23.4902 95.5426C22.455 98.389 26.7246 97.0949 25.4305 99.9413C24.1373 102.788 25.0835 108.35 34.7037 110.679C44.3182 113.007 48.5869 109.256 45.4824 112.619C42.3779 115.983 47.7438 110.808 46.4812 114.43C45.2234 118.053 46.8435 123.357 50.0722 126.653C53.3114 129.955 51.8213 128.014 51.8213 125.494C51.8213 122.973 51.7439 129.127 57.6432 131.046C57.581 131.724 57.5763 132.376 57.6432 132.997C57.6537 133.074 57.6585 133.147 57.669 133.224L57.668 133.222Z" fill="#1D1D1B"/>
<path d="M86.3065 67.4264V67.4312C85.2867 70.3703 82.4976 72.4817 79.2125 72.4817C75.9274 72.4817 72.8889 70.1792 71.999 67.0327C72.1644 66.6446 72.346 66.2718 72.5371 65.9153C72.5993 65.7958 72.6614 65.6773 72.7283 65.5636C72.7646 65.4967 72.8009 65.4345 72.8373 65.3724C72.8994 65.2635 72.9615 65.1554 73.0284 65.0513C73.0648 64.9891 73.1011 64.9327 73.1422 64.8706C73.2043 64.7674 73.2712 64.6632 73.3438 64.5657C73.9489 63.6653 74.6218 62.8892 75.3415 62.2574C75.4141 62.1953 75.4868 62.1332 75.5585 62.0768C76.4846 61.316 77.4787 60.7931 78.4823 60.5398C78.5549 60.5246 78.6276 60.5035 78.6992 60.493C78.9688 60.4357 79.2374 60.4003 79.5117 60.384C79.6149 60.3793 79.7191 60.3735 79.8223 60.3735C80.3452 60.3735 80.8622 60.451 81.3746 60.6115C81.4625 60.6373 81.5504 60.6689 81.6384 60.7042C81.7005 60.7253 81.7578 60.7511 81.8142 60.7769C81.9748 60.8495 82.1296 60.9269 82.2797 61.0197C82.3371 61.0502 82.3935 61.0866 82.4508 61.1229C82.5081 61.1592 82.5645 61.2003 82.6219 61.2424C82.6792 61.2787 82.7356 61.3198 82.7872 61.3618C82.8446 61.4087 82.9067 61.4546 82.9631 61.5071C83.2269 61.7298 83.4754 61.9783 83.7029 62.2421C83.7755 62.3253 83.8482 62.4132 83.9151 62.4954C83.9877 62.5834 84.0547 62.6713 84.1168 62.7592C84.1837 62.8519 84.2458 62.9399 84.3079 63.0335C84.4532 63.2352 84.5823 63.4426 84.7065 63.6548C84.8566 63.9081 85.0019 64.1719 85.1309 64.4309C85.1357 64.4415 85.1414 64.452 85.1462 64.4673C85.1978 64.5657 85.2446 64.6642 85.2915 64.7626C85.4463 65.078 85.5811 65.3992 85.7053 65.7041C85.7675 65.8589 85.8296 66.0147 85.8812 66.1648C85.886 66.1696 85.8917 66.1753 85.8917 66.1858C85.9491 66.3406 86.0055 66.4907 86.0523 66.636C86.0571 66.6513 86.0628 66.6618 86.0628 66.6723C86.0886 66.745 86.1096 66.8119 86.1297 66.8797C86.1765 67.0088 86.2129 67.1387 86.254 67.2573C86.2693 67.3146 86.2903 67.371 86.3056 67.4284L86.3065 67.4264Z" fill="black"/>
<path d="M140.651 76.0472C142.979 79.7577 143.839 85.7965 143.839 85.7965C145.05 82.5162 144.832 76.0061 141.468 64.7515C138.105 53.4968 127.238 49.7453 119.735 51.2975C112.232 52.8497 111.068 59.5767 113.655 58.5215C116.243 57.4663 110.033 64.2344 113.008 62.2941C115.984 60.3538 114.043 61.777 110.809 67.0397C108.067 71.5052 108.305 81.7869 108.444 84.7986C108.993 84.0531 109.733 83.1174 110.68 82.346C113.458 80.0798 112.941 80.8559 112.3 83.3812C111.648 85.9064 114.753 82.5429 118.51 82.8019C122.257 83.061 121.739 83.7023 124.978 84.9955C128.207 86.2887 127.498 85.5805 125.557 87.2618C123.617 88.944 122.256 88.1669 127.497 88.2348C132.739 88.2969 136.227 91.7225 138.038 93.9266C139.849 96.1202 134.157 92.1775 129.697 92.7567C129.697 92.7567 136.641 94.2573 140.78 96.8447V96.8495C141.033 97.0101 141.282 97.1706 141.509 97.336C145.209 85.4753 138.373 72.4257 140.65 76.0472H140.651ZM135.906 71.5406C135.129 74.0658 133.706 74.4539 134.674 74.7129C135.647 74.9719 132.542 76.4563 133.576 76.4563C134.61 76.4563 133.188 77.1703 128.08 77.1703C122.972 77.1703 119.801 75.489 117.855 73.7036C115.92 71.9134 115.077 71.4785 115.785 70.4433C116.499 69.4082 116.302 69.2113 117.989 64.8805C119.665 60.5497 122.646 58.2826 125.554 58.5416C128.463 58.8006 130.858 60.8078 132.928 63.6542C134.998 66.5006 136.742 67.5969 136.742 67.5969C137.694 68.3425 136.68 69.0201 135.904 71.5396L135.906 71.5406Z" fill="#2B2A2A"/>
<path d="M136.744 67.5963C136.744 67.5963 135 66.499 132.93 63.6536C130.86 60.8072 128.465 58.8 125.556 58.541C122.648 58.282 119.667 60.5491 117.991 64.8799C116.304 69.2107 116.501 69.4076 115.787 70.4427C115.078 71.4779 115.922 71.9128 117.857 73.703C119.803 75.4884 122.97 77.1697 128.082 77.1697C133.195 77.1697 134.612 76.4557 133.578 76.4557C132.544 76.4557 135.648 74.9704 134.675 74.7123C133.708 74.4533 135.13 74.0652 135.908 71.54C136.684 69.0195 137.698 68.3419 136.746 67.5973L136.744 67.5963ZM128.014 73.6093C124.78 73.9353 118.509 73.6093 118.509 68.3724C118.509 68.3724 118.535 68.2434 118.592 68.0207C118.633 67.8659 118.685 67.669 118.753 67.431V67.4262C118.768 67.3688 118.789 67.3124 118.804 67.2551C118.845 67.1356 118.882 67.0066 118.929 66.8775C118.95 66.8106 118.97 66.7428 118.995 66.6701C118.995 66.6596 119 66.6491 119.006 66.6338C119.053 66.4885 119.109 66.3385 119.166 66.1836C119.166 66.1731 119.171 66.1683 119.177 66.1626C119.229 66.0125 119.291 65.8577 119.353 65.7019C119.477 65.397 119.612 65.0758 119.767 64.7604C119.814 64.662 119.859 64.5635 119.912 64.4651C119.917 64.4498 119.923 64.4393 119.927 64.4288C120.056 64.1697 120.202 63.9059 120.352 63.6526C120.476 63.4405 120.605 63.233 120.75 63.0314C120.812 62.9387 120.875 62.8507 120.941 62.7571C121.004 62.6691 121.07 62.5812 121.143 62.4932C121.21 62.4053 121.278 62.3222 121.355 62.24C121.583 61.9762 121.831 61.7276 122.095 61.5049C122.152 61.4533 122.215 61.4065 122.271 61.3597C122.323 61.3186 122.38 61.2765 122.436 61.2402C122.494 61.1991 122.55 61.157 122.607 61.1207C122.665 61.0844 122.721 61.0481 122.779 61.0175C122.929 60.9248 123.083 60.8464 123.244 60.7747C123.301 60.7489 123.358 60.7231 123.42 60.7021C123.508 60.6657 123.596 60.6352 123.684 60.6094C124.196 60.4488 124.713 60.3714 125.236 60.3714C125.339 60.3714 125.443 60.3761 125.547 60.3819C125.821 60.3972 126.089 60.4335 126.359 60.4908C126.432 60.5013 126.504 60.5214 126.576 60.5377C127.58 60.791 128.574 61.3138 129.5 62.0746C129.572 62.132 129.645 62.1941 129.717 62.2553C130.436 62.887 131.108 63.6632 131.714 64.5635C131.787 64.662 131.854 64.7652 131.916 64.8684C131.957 64.9306 131.993 64.987 132.03 65.0491C132.097 65.1523 132.159 65.2613 132.221 65.3702C132.257 65.4324 132.294 65.4945 132.33 65.5614C132.397 65.6751 132.459 65.7946 132.521 65.9131C132.712 66.2706 132.894 66.6424 133.059 67.0305L133.064 67.0353C133.152 67.2474 133.24 67.4644 133.328 67.6871C133.416 67.9098 133.499 68.1373 133.576 68.3705C133.576 68.3705 131.248 73.2863 128.013 73.6074L128.014 73.6093Z" fill="#1D1D1B"/>
<path d="M133.577 68.3723C133.577 68.3723 131.249 73.288 128.014 73.6092C124.78 73.9351 118.509 73.6092 118.509 68.3723C118.509 68.3723 118.535 68.2432 118.592 68.0205C118.633 67.8657 118.685 67.6688 118.753 67.4308C119.772 70.3699 122.561 72.4813 125.847 72.4813C129.132 72.4813 132.17 70.1788 133.06 67.0322L133.065 67.037C133.153 67.2492 133.241 67.4662 133.329 67.6889C133.417 67.9116 133.5 68.1391 133.577 68.3723Z" fill="black"/>
<path d="M181.574 95.5394C182.609 98.3858 178.34 97.0917 179.634 99.9381C180.927 102.784 179.981 108.346 170.361 110.676C160.746 113.004 156.477 109.252 159.582 112.616C162.686 115.979 157.321 110.805 158.583 114.427C159.841 118.05 158.221 123.353 154.992 126.65C151.753 129.951 153.243 128.011 153.243 125.491C153.243 122.97 153.32 129.124 147.421 131.043C146.697 123.023 137.931 112.052 142.831 116.952C148.13 122.251 146.645 131.7 147.871 127.881C149.102 124.063 148.456 116.434 147.162 111.969C145.869 107.503 139.468 103.431 141.728 104.207C143.99 104.983 146.318 108.155 146.318 108.155C146.318 108.155 146.189 105.832 145.33 103.198C147.705 97.2111 151.172 100.068 151.369 95.9954C151.56 91.9179 147.938 82.7325 150.267 85.3878C152.595 88.0373 152.813 92.953 152.813 92.953C153.76 88.5544 155.141 94.7643 158.247 85.4499C161.31 76.2598 151.861 64.467 151.608 64.1506C160.228 71.2246 160.058 81.0044 160.058 81.0044C160.058 81.0044 163.421 77.2577 161.869 71.908C160.317 66.5622 162.386 67.9443 161.434 64.4049C160.487 60.8703 153.76 56.3847 157.9 58.5209C162.039 60.6581 162.298 61.7344 162.298 61.7344C162.298 61.7344 162.645 60.0063 160.399 55.6076C158.159 51.209 162.21 54.4023 161.004 45.5171C159.799 36.6377 147.55 33.4443 152.725 34.4795C157.579 35.4525 158.712 38.5416 158.836 38.924C158.79 38.6917 158.526 37.4903 157.843 35.8711C157.843 35.8711 163.763 34.3915 168.249 40.9474C171.426 45.5888 173.522 52.6886 176.094 58.2772C175.436 57.6664 174.722 56.9419 173.941 56.0836C167.473 48.9686 163.851 45.7341 169.542 54.4023C175.234 63.0696 182.737 64.3638 175.234 63.0696C167.731 61.7764 181.719 72.384 174.66 70.4437C167.601 68.5034 186.748 77.8178 177.175 77.8178C167.601 77.8178 175.622 78.8529 180.409 87.6492C185.196 96.4465 180.538 92.6949 181.573 95.5404L181.574 95.5394Z" fill="#2B2A2A"/>
<path d="M161.434 64.4038C162.386 67.9432 160.317 66.5621 161.869 71.9069C163.422 77.2576 160.058 81.0034 160.058 81.0034C160.058 81.0034 160.229 71.2236 151.608 64.1496C151.861 64.465 161.31 76.2588 158.247 85.4489C155.142 94.7632 153.76 88.5533 152.813 92.952C152.813 92.952 152.596 88.0362 150.267 85.3867C147.938 82.7325 151.56 91.9168 151.369 95.9943C151.172 100.067 147.705 97.2101 145.33 103.197C144.828 101.656 144.078 100.005 142.955 98.6438C142.577 98.1831 142.086 97.7482 141.511 97.3344C145.211 85.4737 138.375 72.424 140.652 76.0456C142.981 79.7561 143.84 85.7949 143.84 85.7949C145.051 82.5145 144.833 76.0045 141.469 64.7498C138.106 53.4952 127.239 49.7436 119.736 51.2959C112.233 52.8481 111.069 59.5751 113.656 58.5199C116.244 57.4647 110.034 64.2328 113.009 62.2925C115.985 60.3522 114.044 61.7754 110.81 67.0371C108.068 71.5026 108.306 81.7843 108.445 84.796C107.38 86.2403 107.043 86.9743 107.384 84.4128C107.901 80.5322 107.834 80.47 105.438 82.9227C103.048 85.3858 102.53 88.2312 102.53 88.2312C102.53 88.2312 102.013 85.3848 99.6212 82.9227C97.225 80.47 97.1581 80.5322 97.6752 84.4128C98.0164 86.9743 97.68 86.2393 96.6142 84.796C96.7538 81.7843 96.9918 71.5026 94.2495 67.0371C91.0151 61.7744 89.0748 60.3512 92.0502 62.2925C95.0257 64.2328 88.8158 57.4647 91.4032 58.5199C93.9905 59.5751 92.8264 52.8481 85.3233 51.2959C77.8201 49.7436 66.9535 53.4952 63.59 64.7498C60.2266 76.0045 60.0096 82.5145 61.2206 85.7949C61.2206 85.7949 62.0799 79.7561 64.4082 76.0456C66.685 72.4231 59.849 85.4737 63.549 97.3344C62.9745 97.7482 62.4832 98.1831 62.1057 98.6438C60.9826 100.005 60.2323 101.656 59.7305 103.197C57.3553 97.2101 53.8886 100.067 53.6917 95.9943C53.5005 91.9168 57.1221 82.7315 54.7937 85.3867C52.4654 88.0362 52.2475 92.952 52.2475 92.952C51.3003 88.5533 49.9191 94.7632 46.8137 85.4489C43.7503 76.2588 53.1994 64.466 53.4527 64.1496C44.8313 71.2236 45.0024 81.0034 45.0024 81.0034C45.0024 81.0034 41.6389 77.2566 43.1912 71.9069C44.7434 66.5611 42.6741 67.9432 43.6261 64.4038C44.5733 60.8693 51.3002 56.3837 47.1606 58.5199C43.021 60.6571 42.762 61.7333 42.762 61.7333C42.762 61.7333 42.415 60.0052 44.6612 55.6066C46.9016 51.2079 42.8499 54.4013 44.0552 45.5161C45.2605 36.6366 57.5092 33.4433 52.3344 34.4784C47.4808 35.4514 46.3472 38.5406 46.223 38.9229C46.2698 38.6907 46.5336 37.4892 47.2161 35.8701C48.018 33.9709 49.4001 31.4924 51.6874 29.3036C56.1529 25.035 69.3488 26.9132 62.813 25.3609C56.5515 23.8708 55.1025 25.2367 54.9887 25.3562C55.0403 25.2319 55.9617 23.2448 58.0884 21.7394C60.2925 20.1871 56.4119 17.9209 60.8727 17.465C65.3334 17.0148 72.2564 18.3759 69.799 16.4977C67.3406 14.6195 67.3407 14.8786 73.4215 14.9455C79.5014 15.0124 82.927 19.9902 81.9598 15.1366C80.9925 10.2878 76.4591 8.80248 82.927 12.0991C89.395 15.3957 89.8509 24.0008 91.2732 19.2762C92.6964 14.5565 87.5837 9.44479 91.7903 12.4871C95.4328 15.1213 97.4257 18.8672 97.8912 19.8249C97.9227 19.6232 98.523 15.0592 94.8536 12.446C91.1021 9.77072 95.8008 12.446 98.4762 13.2221C101.146 13.9983 100.846 13.3932 101.881 16.4098C102.916 19.432 103.692 16.8858 101.881 13.3932C100.215 10.1798 105.011 13.2432 107.397 19.3651C108.137 17.984 110.062 14.8059 113.264 12.4881C117.472 9.44575 112.359 14.5584 113.782 19.2772C115.205 24.0018 115.66 15.3966 122.129 12.1C128.597 8.80344 124.064 10.2888 123.096 15.1376C122.129 19.9912 125.554 15.0133 131.634 14.9464C137.714 14.8795 137.714 14.6205 135.257 16.4987C132.798 18.3768 139.722 17.0158 144.183 17.4659C148.644 17.9209 144.762 20.1881 146.967 21.7403C149.094 23.2467 150.015 25.2329 150.067 25.3571C149.953 25.2386 148.504 23.8718 142.243 25.3619C135.707 26.9141 148.903 25.036 153.368 29.3046C155.656 31.4934 157.037 33.9718 157.84 35.871C158.523 37.4911 158.787 38.6916 158.833 38.9239C158.708 38.5406 157.575 35.4514 152.721 34.4794C147.546 33.4442 159.795 36.6376 161 45.517C162.206 54.4023 158.154 51.2089 160.395 55.6075C162.642 60.0062 162.295 61.7343 162.295 61.7343C162.295 61.7343 162.036 60.658 157.896 58.5208C153.756 56.3837 160.483 60.8702 161.431 64.4048L161.434 64.4038Z" fill="#3C3C3B"/>
<path d="M192.053 101.837C192.659 107.441 194.293 109.252 191.189 104.165C188.084 99.0739 190.848 107.156 190.848 107.156C190.848 107.156 188.948 106.577 186.62 112.098C184.292 117.619 178.082 119.264 178.082 119.264C178.082 119.264 180.152 116.842 180.322 112.962C180.498 109.081 177.823 120.289 173.254 123.052C168.679 125.811 166.868 125.464 166.868 125.464C166.868 125.464 169.715 124.688 169.803 120.03C169.89 115.373 168.079 123.911 163.593 126.845C159.106 129.779 162.268 127.016 157.843 129.949C154.418 132.216 149.466 132.987 147.396 133.22C147.406 133.143 147.411 133.07 147.421 132.993C147.488 132.371 147.483 131.72 147.421 131.042C153.321 129.122 153.243 122.964 153.243 125.49C153.243 128.015 151.753 129.95 154.992 126.649C158.221 123.352 159.841 118.049 158.583 114.426C157.321 110.804 162.687 115.978 159.582 112.615C156.478 109.251 160.746 113.003 170.361 110.675C179.98 108.346 180.927 102.783 179.634 99.9369C178.341 97.0905 182.609 98.3847 181.574 95.5383C180.539 92.6919 185.197 96.4435 180.41 87.6472C175.623 78.8499 167.603 77.8157 177.176 77.8157C186.748 77.8157 167.602 68.5013 174.661 70.4416C181.72 72.3819 167.732 61.7743 175.235 63.0675C182.738 64.3608 175.235 63.0675 169.544 54.4003C163.852 45.733 167.473 48.9665 173.942 56.0815C174.724 56.9408 175.438 57.6653 176.095 58.2751C177.156 60.5834 178.299 62.6317 179.634 64.1428C184.058 69.157 186.79 71.3353 186.956 71.4701C186.729 71.3974 183.081 70.2227 180.41 68.7173C177.652 67.1651 183.344 71.905 186.966 73.1982C190.589 74.4914 188.518 79.496 191.106 81.3942C193.693 83.2887 194.293 88.5504 194.293 88.5504C194.293 88.5504 192.223 84.9279 188.43 82.9465C184.638 80.9593 191.706 87.6032 193.517 93.296C195.328 98.9878 191.447 96.2246 192.053 101.834V101.837Z" fill="#1D1D1B"/>
<path d="M133.059 67.0331C132.169 70.1796 129.276 72.4822 125.845 72.4822C122.415 72.4822 119.77 70.3708 118.751 67.4317V67.4269C118.767 67.3695 118.788 67.3132 118.803 67.2558C118.844 67.1363 118.88 67.0073 118.927 66.8783C118.948 66.8114 118.968 66.7435 118.994 66.6709C118.994 66.6603 118.999 66.6498 119.005 66.6345C119.052 66.4893 119.108 66.3392 119.165 66.1843C119.165 66.1738 119.17 66.1691 119.176 66.1633C119.227 66.0133 119.29 65.8584 119.352 65.7026C119.476 65.3977 119.611 65.0766 119.766 64.7611C119.812 64.6627 119.858 64.5642 119.911 64.4658C119.916 64.4505 119.921 64.44 119.926 64.4295C120.055 64.1705 120.2 63.9067 120.351 63.6534C120.475 63.4412 120.604 63.2338 120.749 63.0321C120.811 62.9394 120.873 62.8514 120.94 62.7578C121.002 62.6698 121.069 62.5819 121.142 62.494C121.209 62.4108 121.281 62.3229 121.354 62.2407C121.582 61.9769 121.83 61.7284 122.094 61.5057C122.151 61.454 122.213 61.4072 122.27 61.3604C122.321 61.3193 122.379 61.2772 122.435 61.2409C122.492 61.1998 122.549 61.1577 122.606 61.1214C122.664 61.0851 122.72 61.0488 122.777 61.0182C122.927 60.9255 123.082 60.8471 123.243 60.7754C123.3 60.7496 123.357 60.7238 123.419 60.7028C123.507 60.6665 123.595 60.6359 123.682 60.6101C124.195 60.4495 124.712 60.3721 125.235 60.3721C125.338 60.3721 125.442 60.3768 125.545 60.3826C125.82 60.3979 126.088 60.4342 126.358 60.4915C126.43 60.5021 126.503 60.5221 126.575 60.5384C127.578 60.7917 128.572 61.3145 129.499 62.0753C129.571 62.1327 129.644 62.1948 129.716 62.256C130.435 62.8878 131.107 63.6639 131.713 64.5642C131.786 64.6627 131.853 64.7659 131.915 64.8691C131.956 64.9313 131.992 64.9877 132.029 65.0498C132.096 65.153 132.158 65.262 132.22 65.3709C132.256 65.4331 132.292 65.4952 132.329 65.5621C132.396 65.6759 132.458 65.7953 132.52 65.9139C132.711 66.2713 132.893 66.6431 133.058 67.0312L133.059 67.0331Z" fill="black"/>
<path d="M79.155 69.2714C80.5908 69.2714 81.7548 68.1074 81.7548 66.6716C81.7548 65.2357 80.5908 64.0718 79.155 64.0718C77.7192 64.0718 76.5552 65.2357 76.5552 66.6716C76.5552 68.1074 77.7192 69.2714 79.155 69.2714Z" fill="black"/>
<path d="M81.7548 66.8778C82.7372 66.8778 83.5336 66.0815 83.5336 65.0991C83.5336 64.1167 82.7372 63.3203 81.7548 63.3203C80.7725 63.3203 79.9761 64.1167 79.9761 65.0991C79.9761 66.0815 80.7725 66.8778 81.7548 66.8778Z" fill="#E6E7E8"/>
<path d="M125.908 69.2714C127.344 69.2714 128.507 68.1074 128.507 66.6716C128.507 65.2357 127.344 64.0718 125.908 64.0718C124.472 64.0718 123.308 65.2357 123.308 66.6716C123.308 68.1074 124.472 69.2714 125.908 69.2714Z" fill="black"/>
<path d="M128.765 66.8778C129.747 66.8778 130.543 66.0815 130.543 65.0991C130.543 64.1167 129.747 63.3203 128.765 63.3203C127.782 63.3203 126.986 64.1167 126.986 65.0991C126.986 66.0815 127.782 66.8778 128.765 66.8778Z" fill="#E6E7E8"/>
<defs>
<linearGradient id="paint0_linear_34_1562" x1="102.532" y1="170.563" x2="102.532" y2="0.60354" gradientUnits="userSpaceOnUse">
<stop stop-color="#5E38CA"/>
<stop offset="1" stop-color="#30E9A1"/>
</linearGradient>
</defs>
</svg>
